<svg width="704" height="817" viewBox="0 0 704 817" fill="none" xmlns="http://www.w3.org/2000/svg">
<path d="M631.673 742.256C631.673 700.997 516.496 667.542 374.42 667.542C232.344 667.542 117.167 700.997 117.167 742.256C117.167 783.516 232.344 816.97 374.42 816.97C516.496 816.957 631.673 783.516 631.673 742.256Z" fill="#42244E" fill-opacity="0.13"/>
<path opacity="0.3" d="M512.175 695.346C512.175 691.45 502.697 688.296 491.011 688.296C479.324 688.296 469.846 691.45 469.846 695.346C469.846 699.241 479.324 702.396 491.011 702.396C502.697 702.396 512.175 699.241 512.175 695.346Z" fill="#561A6A"/>
<path opacity="0.3" d="M444.868 725.138C444.868 718.76 429.382 713.603 410.261 713.603C391.154 713.603 375.655 718.76 375.655 725.138C375.655 731.517 391.141 736.674 410.261 736.674C429.382 736.674 444.868 731.503 444.868 725.138Z" fill="#561A6A"/>
<path opacity="0.3" d="M373.501 699.406C373.501 693.042 358.015 687.87 338.894 687.87C319.787 687.87 304.287 693.028 304.287 699.406C304.287 705.784 319.787 710.942 338.894 710.942C358.015 710.942 373.501 705.784 373.501 699.406Z" fill="#561A6A"/>
<path opacity="0.3" d="M365.559 720.283C365.559 718.252 360.607 716.593 354.504 716.593C348.4 716.593 343.448 718.239 343.448 720.283C343.448 722.313 348.4 723.972 354.504 723.972C360.607 723.972 365.559 722.326 365.559 720.283Z" fill="#561A6A"/>
<path opacity="0.3" d="M455.183 704.522C455.183 702.492 450.231 700.833 444.127 700.833C438.023 700.833 433.072 702.479 433.072 704.522C433.072 706.552 438.023 708.212 444.127 708.212C450.231 708.198 455.183 706.552 455.183 704.522Z" fill="#561A6A"/>
<path opacity="0.3" d="M369.702 681.657C369.702 679.627 364.75 677.967 358.646 677.967C352.542 677.967 347.591 679.613 347.591 681.657C347.591 683.687 352.542 685.347 358.646 685.347C364.75 685.333 369.702 683.687 369.702 681.657Z" fill="#561A6A"/>
<path opacity="0.3" d="M281.737 691.149C281.737 689.119 276.785 687.459 270.681 687.459C264.578 687.459 259.626 689.105 259.626 691.149C259.626 693.179 264.578 694.838 270.681 694.838C276.785 694.825 281.737 693.179 281.737 691.149Z" fill="#561A6A"/>
<path d="M351.719 734.26C545.968 734.26 703.438 584.927 703.438 400.715C703.438 216.503 545.968 67.1703 351.719 67.1703C157.47 67.1703 0 216.503 0 400.715C0 584.927 157.47 734.26 351.719 734.26Z" fill="url(#paint0_linear_102_3)"/>
<g opacity="0.7">
<path d="M489.488 187.341L494.467 247.639L518.814 250.409L553.119 220.535C553.119 220.535 567.508 254.277 568.056 256.5C568.605 258.708 621.715 234.649 623.375 235.198C625.035 235.746 649.382 236.021 649.93 239.34C650.479 242.66 691.107 312.984 691.107 312.984C659.011 201.044 566.986 112.517 449.724 80.3108L466.815 160.786L489.488 187.341Z" fill="white" fill-opacity="0.11"/>
</g>
<path opacity="0.3" d="M577.315 340.582L669.847 543.065C689.763 510.694 703.438 438.49 703.438 400.715C703.438 356.822 701.381 353.859 691.423 314.85L634.156 250.121L576.341 251.507L577.315 340.582Z" fill="#382D44"/>
<path d="M580.072 254.058L598.479 262.576L628.642 257.46L606.215 247.09L580.072 254.058Z" fill="#9D32ED"/>
<path d="M578.563 250.546L603.458 223.991L629.602 251.369L605.941 245.567L578.563 250.546Z" fill="#927862"/>
<path d="M601.798 257.597H595.16V333.943H601.798V257.597Z" fill="#9F33EF"/>
<path d="M607.34 241.274L574.969 249.792L577.315 340.582L609.261 345.149L633.333 337.262L633.759 249.792L607.34 241.274ZM607.148 327.043L580.634 333.12L580.072 254.058L607.45 248.695L607.148 327.043ZM626.695 330.623L613.966 326.193L613.417 250.395L628.642 257.459L626.695 330.623Z" fill="#8B6039"/>
<path opacity="0.3" d="M577.288 339.306L577.315 340.568L609.261 345.136L633.333 337.249L633.759 249.778L609.041 241.809L610.098 330.061L577.288 339.306ZM628.642 257.46L626.695 330.623L613.966 326.193L613.417 250.396L628.642 257.46Z" fill="#382D44"/>
<path opacity="0.7" d="M583.13 257.597L585.613 304.068L602.622 253.866L583.13 257.597Z" fill="#E6FFFC"/>
<path opacity="0.7" d="M586.862 311.955L603.87 260.916L604.707 281.244L586.025 326.467L586.862 311.955Z" fill="#E6FFFC"/>
<path d="M603.458 212.236C599.48 212.236 596.271 215.46 596.271 219.424C596.271 223.402 599.494 226.611 603.458 226.611C607.436 226.611 610.646 223.388 610.646 219.424C610.646 215.446 607.422 212.236 603.458 212.236ZM603.458 224.417C600.701 224.417 598.465 222.181 598.465 219.424C598.465 216.667 600.701 214.431 603.458 214.431C606.215 214.431 608.451 216.667 608.451 219.424C608.451 222.181 606.215 224.417 603.458 224.417Z" fill="#936A0F"/>
<path d="M606.216 169.633L600.14 164.654V219.424H606.216V169.633Z" fill="#9D32ED"/>
<g filter="url(#filter0_f_102_3)">
<path d="M54.0986 390.373L61.5741 353.023L72.3552 290.777L90.7765 266.005L96.4277 312.353L119.664 317.332L133.764 300.735L154.503 283.302L176.08 319.815L195.173 289.117L197.669 256.746L206.805 219.41L234.183 215.254L249.957 193.678L250.78 152.185L256.596 116.495C263.893 110.652 272.616 90.2553 278.597 74.3853C143.901 101.407 37.6662 201.537 8.2168 328.95L39.1887 348.853L54.0986 390.373Z" fill="white" fill-opacity="0.08"/>
</g>
<path d="M417.923 96.5208C426.237 101.767 426.689 115.321 418.839 126.7L190.144 459.685C182.293 471.064 169.254 476.059 160.872 470.787L150.816 464.409L407.847 90.2L417.923 96.5208Z" fill="#373942"/>
<path d="M401.37 85.5115L410.683 91.4054L153.563 465.652L144.249 459.758C135.931 454.511 135.546 440.982 143.332 429.576L372.107 96.5567C379.961 85.1766 393.072 80.2069 401.37 85.5115Z" fill="#16091C"/>
<path d="M504.94 285.45L486.595 283.563L482.254 281.583C453.831 249.294 407.093 203.31 339.266 162.646C301.932 140.247 266.737 124.585 236.716 113.54L229.487 72.9418L225.338 49.8229C225.356 49.7694 225.356 49.7694 225.374 49.7159C374.902 111.805 398.612 141.177 432.789 178.194C472.723 221.576 504.94 285.45 504.94 285.45Z" fill="#59748C"/>
<path d="M485.571 284.19L481.24 282.219C452.877 250.067 406.239 204.279 338.562 163.79C301.31 141.488 266.193 125.894 236.24 114.898L229.021 74.4694C313.876 110.168 389.761 160.877 420.688 194.355C446.719 222.437 471.48 260.877 485.571 284.19Z" fill="#34495E"/>
<path d="M336.454 112.635C344.177 101.053 361.405 98.8608 374.967 107.725L404.975 127.418C418.518 136.336 423.271 152.948 415.548 164.529L408.341 175.393L329.247 123.499L336.454 112.635Z" fill="#628096"/>
<path d="M406.238 177.917L399.471 188.086C391.751 199.661 374.532 201.852 360.976 192.994L330.983 173.313C317.446 164.401 312.695 147.8 320.353 136.2L327.121 126.032L406.238 177.917Z" fill="#48647C"/>
<defs>
<filter id="filter0_f_102_3" x="4.2168" y="70.3853" width="278.38" height="323.988" filterUnits="userSpaceOnUse" color-interpolation-filters="sRGB">
<feFlood flood-opacity="0" result="BackgroundImageFix"/>
<feBlend mode="normal" in="SourceGraphic" in2="BackgroundImageFix" result="shape"/>
<feGaussianBlur stdDeviation="2" result="effect1_foregroundBlur_102_3"/>
</filter>
<linearGradient id="paint0_linear_102_3" x1="316.758" y1="710.374" x2="456.603" y2="67.1703" gradientUnits="userSpaceOnUse">
<stop stop-color="#210030" stop-opacity="0"/>
<stop offset="1" stop-color="#740BA9" stop-opacity="0.26"/>
</linearGradient>
</defs>
</svg>
