<svg width="367" height="354" viewBox="0 0 367 354" fill="none" xmlns="http://www.w3.org/2000/svg">
<path d="M352.589 330.699C352.589 348.51 296.396 353.214 265.039 353.214C263.032 353.214 260.9 353.214 258.705 353.151C233.117 352.649 196.743 349.263 183.447 339.291C181.503 337.786 180.061 336.281 179.308 334.525C178.618 333.333 178.242 332.016 178.242 330.699H352.589Z" fill="#7C5D26"/>
<path d="M233.996 312.637H177.553V330.699C177.553 339.793 206.088 347.444 244.469 349.451V311.948C240.895 312.136 237.383 312.324 233.996 312.637Z" fill="#82754E"/>
<path d="M265.102 311.383C258.015 311.383 251.117 311.571 244.469 311.948V349.451C251.054 349.827 257.953 350.016 265.102 350.016C272.063 350.016 278.837 349.827 285.359 349.514V311.948C278.837 311.571 272.063 311.383 265.102 311.383Z" fill="#82754E"/>
<path d="M326.249 312.637V344.496C342.492 340.984 352.59 336.093 352.59 330.699V312.637H326.249Z" fill="#82754E"/>
<path d="M296.148 312.637C292.636 312.324 288.998 312.136 285.298 311.948V349.514C300.977 348.698 315.025 346.942 326.188 344.496V312.637H296.148Z" fill="#7C5D26"/>
<path d="M352.588 312.637C352.588 323.299 313.392 331.954 265.101 331.954C216.748 331.954 177.614 323.299 177.614 312.637C177.614 301.976 216.811 293.321 265.101 293.321C313.392 293.321 352.588 301.976 352.588 312.637Z" fill="#7C5D26"/>
<path d="M340.8 310.129C340.8 317.968 306.871 324.302 265.04 324.302C223.21 324.302 189.281 317.968 189.281 310.129C189.281 302.289 223.21 295.955 265.04 295.955C306.934 295.893 340.8 302.289 340.8 310.129Z" fill="#82754E"/>
<path d="M178.683 300.722C178.683 318.596 234.123 323.299 265.418 323.299C296.712 323.299 352.905 318.596 352.905 300.722H178.683Z" fill="#7C5D26"/>
<path d="M234.373 282.66H177.93V300.722C177.93 309.816 206.465 317.467 244.846 319.474V281.97C241.272 282.159 237.76 282.347 234.373 282.66Z" fill="#82754E"/>
<path d="M265.479 281.406C258.392 281.406 251.494 281.594 244.846 281.971V319.474C251.431 319.85 258.33 320.039 265.479 320.039C272.44 320.039 279.214 319.85 285.736 319.537V281.971C279.214 281.594 272.44 281.406 265.479 281.406Z" fill="#82754E"/>
<path d="M326.626 282.66V314.519C342.869 311.007 352.966 306.115 352.966 300.722V282.66H326.626Z" fill="#82754E"/>
<path d="M296.525 282.66C293.012 282.347 289.375 282.159 285.675 281.97V319.536C301.353 318.721 315.401 316.965 326.565 314.519V282.66H296.525Z" fill="#7C5D26"/>
<path d="M265.478 301.977C313.796 301.977 352.965 293.328 352.965 282.66C352.965 271.992 313.796 263.344 265.478 263.344C217.16 263.344 177.991 271.992 177.991 282.66C177.991 293.328 217.16 301.977 265.478 301.977Z" fill="#7C5D26"/>
<path d="M341.177 280.152C341.177 287.991 307.248 294.325 265.417 294.325C223.587 294.325 189.658 287.991 189.658 280.152C189.658 272.312 223.587 265.978 265.417 265.978C307.311 265.916 341.177 272.25 341.177 280.152Z" fill="#82754E"/>
<path d="M185.708 270.682C185.708 288.556 241.148 293.259 272.442 293.259C303.737 293.259 359.929 288.556 359.929 270.682H185.708Z" fill="#7C5D26"/>
<path d="M241.398 252.682H184.955V270.744C184.955 279.838 213.49 287.489 251.871 289.496V251.993C248.296 252.118 244.784 252.369 241.398 252.682Z" fill="#82754E"/>
<path d="M272.443 251.366C265.356 251.366 258.457 251.554 251.809 251.93V289.434C258.394 289.81 265.293 289.998 272.443 289.998C279.404 289.998 286.177 289.81 292.699 289.496V251.93C286.24 251.617 279.467 251.366 272.443 251.366Z" fill="#82754E"/>
<path d="M333.59 252.682V284.542C349.833 281.03 359.93 276.138 359.93 270.744V252.682H333.59Z" fill="#82754E"/>
<path d="M303.549 252.682C300.037 252.369 296.4 252.181 292.699 251.993V289.559C308.378 288.743 322.426 286.987 333.59 284.542V252.682H303.549Z" fill="#7C5D26"/>
<path d="M359.99 252.683C359.99 263.344 320.793 271.999 272.503 271.999C224.15 271.999 185.016 263.344 185.016 252.683C185.016 242.021 224.212 233.367 272.503 233.367C320.793 233.367 359.99 242.021 359.99 252.683Z" fill="#7C5D26"/>
<path d="M348.202 250.174C348.202 258.013 314.273 264.348 272.442 264.348C230.612 264.348 196.683 258.013 196.683 250.174C196.683 242.335 230.612 236.001 272.442 236.001C314.273 235.938 348.202 242.272 348.202 250.174Z" fill="#82754E"/>
<path d="M174.733 240.704C174.733 258.578 230.173 263.282 261.467 263.282C292.762 263.282 348.954 258.578 348.954 240.704H174.733Z" fill="#7C5D26"/>
<path d="M230.423 222.705H173.979V240.767C173.979 249.86 202.515 257.511 240.896 259.518V222.015C237.321 222.14 233.809 222.391 230.423 222.705Z" fill="#82754E"/>
<path d="M261.467 221.451C254.381 221.451 247.482 221.639 240.834 222.015V259.519C247.419 259.895 254.318 260.083 261.467 260.083C268.429 260.083 275.202 259.895 281.724 259.581V222.015C275.265 221.639 268.491 221.451 261.467 221.451Z" fill="#82754E"/>
<path d="M322.615 222.705V254.564C338.858 251.052 348.955 246.16 348.955 240.766V222.705H322.615Z" fill="#82754E"/>
<path d="M292.574 222.705C289.062 222.391 285.425 222.203 281.724 222.015V259.581C297.403 258.766 311.451 257.01 322.614 254.564V222.705H292.574Z" fill="#7C5D26"/>
<path d="M349.015 222.705C349.015 233.366 309.818 242.021 261.528 242.021C213.175 242.021 174.041 233.366 174.041 222.705C174.041 212.043 213.237 203.389 261.528 203.389C309.818 203.389 349.015 212.043 349.015 222.705Z" fill="#7C5D26"/>
<path d="M337.226 220.197C337.226 228.036 303.298 234.37 261.467 234.37C219.637 234.37 185.708 228.036 185.708 220.197C185.708 212.357 219.637 206.023 261.467 206.023C303.298 206.023 337.226 212.295 337.226 220.197Z" fill="#82754E"/>
<path d="M181.754 210.727C181.754 228.6 237.194 233.304 268.489 233.304C299.783 233.304 355.976 228.6 355.976 210.727H181.754Z" fill="#7C5D26"/>
<path d="M237.383 192.728H180.94V210.789C180.94 219.883 209.475 227.534 247.857 229.541V192.038C244.282 192.163 240.77 192.414 237.383 192.728Z" fill="#82754E"/>
<path d="M268.489 191.474C261.402 191.474 254.504 191.662 247.856 192.038V229.541C254.441 229.918 261.34 230.106 268.489 230.106C275.45 230.106 282.224 229.918 288.746 229.604V192.038C282.224 191.662 275.45 191.474 268.489 191.474Z" fill="#82754E"/>
<path d="M329.636 192.728V224.587C345.879 221.075 355.976 216.183 355.976 210.789V192.728H329.636Z" fill="#82754E"/>
<path d="M299.596 192.728C296.084 192.414 292.446 192.226 288.746 192.038V229.604C304.425 228.789 318.473 227.033 329.636 224.587V192.728H299.596Z" fill="#7C5D26"/>
<path d="M268.491 212.044C316.809 212.044 355.978 203.396 355.978 192.728C355.978 182.06 316.809 173.412 268.491 173.412C220.173 173.412 181.004 182.06 181.004 192.728C181.004 203.396 220.173 212.044 268.491 212.044Z" fill="#7C5D26"/>
<path d="M344.248 190.157C344.248 197.996 310.32 204.33 268.489 204.33C226.658 204.33 192.729 197.996 192.729 190.157C192.729 182.317 226.658 175.983 268.489 175.983C310.32 175.983 344.248 182.317 344.248 190.157Z" fill="#82754E"/>
<path d="M176.362 174.916C176.362 192.79 231.802 197.493 263.097 197.493C294.391 197.493 350.584 192.79 350.584 174.916H176.362Z" fill="#7C5D26"/>
<path d="M232.052 156.854H175.609V174.916C175.609 184.01 204.144 191.661 242.525 193.668V156.165C238.951 156.353 235.439 156.541 232.052 156.854Z" fill="#82754E"/>
<path d="M263.158 155.6C256.071 155.6 249.173 155.788 242.525 156.165V193.668C249.11 194.044 256.009 194.233 263.158 194.233C270.119 194.233 276.893 194.044 283.415 193.731V156.165C276.893 155.788 270.119 155.6 263.158 155.6Z" fill="#82754E"/>
<path d="M324.305 156.854V188.713C340.548 185.201 350.645 180.31 350.645 174.916V156.854H324.305Z" fill="#82754E"/>
<path d="M294.203 156.854C290.691 156.541 287.054 156.353 283.354 156.165V193.731C299.032 192.915 313.08 191.159 324.244 188.713V156.854H294.203Z" fill="#7C5D26"/>
<path d="M350.644 156.854C350.644 167.516 311.447 176.171 263.157 176.171C214.804 176.171 175.67 167.516 175.67 156.854C175.67 146.193 214.867 137.538 263.157 137.538C311.447 137.538 350.644 146.193 350.644 156.854Z" fill="#7C5D26"/>
<path d="M338.856 154.346C338.856 162.186 304.927 168.52 263.096 168.52C221.266 168.52 187.337 162.186 187.337 154.346C187.337 146.507 221.266 140.173 263.096 140.173C304.927 140.173 338.856 146.507 338.856 154.346Z" fill="#82754E"/>
<path d="M192.356 140.987C192.356 158.861 247.796 163.565 279.091 163.565C310.385 163.565 366.578 158.861 366.578 140.987H192.356Z" fill="#7C5D26"/>
<path d="M248.046 122.925H191.603V140.987C191.603 150.081 220.138 157.732 258.519 159.739V122.236C254.945 122.424 251.433 122.675 248.046 122.925Z" fill="#82754E"/>
<path d="M279.152 121.672C272.065 121.672 265.167 121.86 258.519 122.236V159.739C265.104 160.116 272.002 160.304 279.152 160.304C286.113 160.304 292.886 160.116 299.409 159.802V122.236C292.886 121.922 286.113 121.672 279.152 121.672Z" fill="#82754E"/>
<path d="M340.299 122.926V154.785C356.542 151.273 366.639 146.381 366.639 140.987V122.926H340.299Z" fill="#82754E"/>
<path d="M310.259 122.925C306.747 122.612 303.109 122.424 299.409 122.236V159.802C315.088 158.986 329.136 157.231 340.299 154.785V122.925H310.259Z" fill="#7C5D26"/>
<path d="M366.641 122.926C366.641 133.587 327.444 142.242 279.154 142.242C230.801 142.242 191.667 133.587 191.667 122.926C191.667 112.264 230.864 103.61 279.154 103.61C327.444 103.672 366.641 112.264 366.641 122.926Z" fill="#7C5D26"/>
<path d="M354.911 120.417C354.911 128.257 320.982 134.591 279.152 134.591C237.321 134.591 203.392 128.257 203.392 120.417C203.392 112.578 237.321 106.244 279.152 106.244C320.982 106.244 354.911 112.578 354.911 120.417Z" fill="#82754E"/>
<path d="M162.753 111.01C162.753 128.884 218.193 133.588 249.488 133.588C280.783 133.588 336.975 128.884 336.975 111.01H162.753Z" fill="#7C5D26"/>
<path d="M218.443 92.9484H162V111.01C162 120.104 190.535 127.755 228.917 129.762V92.2587C225.342 92.4468 221.83 92.6976 218.443 92.9484Z" fill="#82754E"/>
<path d="M249.549 91.6945C242.462 91.6945 235.564 91.8826 228.916 92.2589V129.762C235.501 130.139 242.4 130.327 249.549 130.327C256.51 130.327 263.284 130.138 269.806 129.825V92.2589C263.284 91.9453 256.51 91.6945 249.549 91.6945Z" fill="#82754E"/>
<path d="M310.696 92.9485V124.808C326.939 121.296 337.037 116.404 337.037 111.01V92.9485H310.696Z" fill="#82754E"/>
<path d="M280.595 92.9484C277.083 92.6349 273.445 92.4468 269.745 92.2587V129.825C285.424 129.009 299.472 127.253 310.635 124.808V92.9484H280.595Z" fill="#7C5D26"/>
<path d="M337.035 92.9486C337.035 103.61 297.838 112.265 249.548 112.265C201.195 112.265 162.061 103.61 162.061 92.9486C162.061 82.2871 201.258 73.6326 249.548 73.6326C297.838 73.6326 337.035 82.2871 337.035 92.9486Z" fill="#7C5D26"/>
<path d="M325.308 90.4402C325.308 98.2796 291.379 104.614 249.549 104.614C207.718 104.614 173.79 98.2796 173.79 90.4402C173.79 82.6009 207.718 76.2668 249.549 76.2668C291.379 76.2668 325.308 82.6009 325.308 90.4402Z" fill="#82754E"/>
<path d="M173.101 72.3778C173.101 90.2515 228.541 94.9551 259.835 94.9551C291.13 94.9551 347.322 90.2515 347.322 72.3778H173.101Z" fill="#7C5D26"/>
<path d="M228.791 54.3162H172.347V72.3778C172.347 81.4715 200.883 89.1228 239.264 91.1297V53.6262C235.689 53.8144 232.177 54.0653 228.791 54.3162Z" fill="#82754E"/>
<path d="M259.897 53.062C252.81 53.062 245.911 53.2501 239.263 53.6264V91.1299C245.848 91.5061 252.747 91.6943 259.897 91.6943C266.858 91.6943 273.631 91.506 280.153 91.1924V53.6264C273.631 53.2501 266.858 53.062 259.897 53.062Z" fill="#82754E"/>
<path d="M321.044 54.3168V86.1757C337.287 82.6637 347.384 77.7719 347.384 72.3784V54.3168H321.044Z" fill="#82754E"/>
<path d="M290.942 54.3162C287.43 54.0026 283.792 53.8144 280.092 53.6262V91.1922C295.771 90.377 309.819 88.621 320.982 86.1751V54.3162H290.942Z" fill="#7C5D26"/>
<path d="M259.899 73.6324C308.216 73.6324 347.385 64.9843 347.385 54.3163C347.385 43.6483 308.216 35.0001 259.899 35.0001C211.581 35.0001 172.412 43.6483 172.412 54.3163C172.412 64.9843 211.581 73.6324 259.899 73.6324Z" fill="#7C5D26"/>
<path d="M335.594 51.8078C335.594 59.6471 301.666 65.9814 259.835 65.9814C218.004 65.9814 184.076 59.6471 184.076 51.8078C184.076 43.9685 218.004 37.6344 259.835 37.6344C301.666 37.6344 335.594 43.9685 335.594 51.8078Z" fill="#82754E"/>
<g filter="url(#filter0_d_102_4)">
<path d="M144.591 248.207C209.987 248.207 263 195.194 263 129.799C263 64.4038 209.987 11.3905 144.591 11.3905C79.1963 11.3905 26.1831 64.4038 26.1831 129.799C26.1831 195.194 79.1963 248.207 144.591 248.207Z" fill="#E39A4F"/>
<path d="M129.809 248.207C195.204 248.207 248.217 195.194 248.217 129.799C248.217 64.4038 195.204 11.3905 129.809 11.3905C64.4137 11.3905 11.4004 64.4038 11.4004 129.799C11.4004 195.194 64.4137 248.207 129.809 248.207Z" fill="#FFE9A0"/>
<path d="M194.697 194.697C230.54 158.854 230.54 100.742 194.697 64.8991C158.854 29.0563 100.742 29.0563 64.8991 64.899C29.0563 100.742 29.0563 158.854 64.8991 194.697C100.742 230.54 158.854 230.54 194.697 194.697Z" fill="#E39A4F"/>
<path d="M170.895 135.349C168.187 131.15 164.171 128.087 158.847 126.149C162.351 124.356 165 122.375 166.803 120.206C170.023 116.34 171.632 111.221 171.632 104.852C171.632 98.6719 170.033 93.3639 166.846 88.9334C162.034 82.3871 154.163 78.7425 143.251 77.9781V65.5854H124.506V77.8274H117.061V65.5854H98.3155V77.8274H89.4221V182.12H98.3155V191.493H117.061V182.12H124.506V191.493H143.251V181.835C146.002 181.604 148.634 181.227 151.148 180.705C155.676 179.762 159.6 178.013 162.933 175.467C165.888 173.249 168.349 170.514 170.319 167.257C173.414 162.352 174.965 156.808 174.965 150.627C174.959 144.646 173.603 139.548 170.895 135.349ZM150.831 107.189C150.831 111.576 149.42 114.628 146.594 116.351C143.768 118.074 140.091 118.935 135.563 118.935H110.213V95.9372H132.899C137.894 95.9372 142.002 96.4809 145.221 97.563C148.963 99.1242 150.831 102.333 150.831 107.189ZM146.099 162.169C143.579 163.397 140.059 164.011 135.537 164.011H110.218V136.205H135.886C140.36 136.254 143.838 136.84 146.309 137.976C150.739 140.006 152.952 143.731 152.952 149.158C152.952 155.564 150.669 159.903 146.099 162.169Z" fill="#FFE9A0"/>
</g>
<path d="M57 72C57 51.5349 68.5445 38 86 38C68.5445 38 57 24.4186 57 4C57 24.4651 45.4159 38 28 38C45.4555 38 57 51.5814 57 72Z" fill="url(#paint0_linear_102_4)"/>
<defs>
<filter id="filter0_d_102_4" x="11.4004" y="11.3905" width="262.6" height="244.817" filterUnits="userSpaceOnUse" color-interpolation-filters="sRGB">
<feFlood flood-opacity="0" result="BackgroundImageFix"/>
<feColorMatrix in="SourceAlpha" type="matrix" values="0 0 0 0 0 0 0 0 0 0 0 0 0 0 0 0 0 0 127 0" result="hardAlpha"/>
<feOffset dx="7" dy="4"/>
<feGaussianBlur stdDeviation="2"/>
<feComposite in2="hardAlpha" operator="out"/>
<feColorMatrix type="matrix" values="0 0 0 0 0.148123 0 0 0 0 0.104271 0 0 0 0 0.175 0 0 0 0.25 0"/>
<feBlend mode="normal" in2="BackgroundImageFix" result="effect1_dropShadow_102_4"/>
<feBlend mode="normal" in="SourceGraphic" in2="effect1_dropShadow_102_4" result="shape"/>
</filter>
<linearGradient id="paint0_linear_102_4" x1="26.7715" y1="71.9992" x2="86" y2="71.9992" gradientUnits="userSpaceOnUse">
<stop stop-color="#680096"/>
<stop offset="1" stop-color="#A639FB"/>
</linearGradient>
</defs>
</svg>
