<svg width="378" height="297" viewBox="0 0 378 297" fill="none" xmlns="http://www.w3.org/2000/svg">
<path d="M95.2201 218.007L25.4321 267.71H368V56.4722L299.426 1H232.217L162.277 49.8155L95.2201 218.007Z" fill="url(#paint0_linear_34_1832)"/>
<path d="M25.4321 267.71L95.2201 218.007L162.277 49.8155L232.217 1H299.426L368 56.4722" stroke="url(#paint1_linear_34_1832)"/>
<path d="M25.4321 11.207V268.598H378" stroke="white"/>
<path d="M25.4321 72.448L360.193 72.448" stroke="white" stroke-opacity="0.38" stroke-dasharray="2.38 2.38"/>
<path d="M25.4321 200.922H360.193" stroke="white" stroke-opacity="0.38" stroke-dasharray="2.38 2.38"/>
<path d="M92.355 11.6506V269.485" stroke="white" stroke-opacity="0.38" stroke-dasharray="2.38 2.38"/>
<path d="M159.277 11.207V269.042" stroke="white" stroke-opacity="0.38" stroke-dasharray="2.38 2.38"/>
<path d="M225.162 11.207V269.042" stroke="white" stroke-opacity="0.38" stroke-dasharray="2.38 2.38"/>
<path d="M293.122 11.207V269.042" stroke="white" stroke-opacity="0.38" stroke-dasharray="2.38 2.38"/>
<path d="M360.193 11.207V269.042" stroke="white" stroke-opacity="0.38" stroke-dasharray="2.38 2.38"/>
<path d="M6.5625 64.5535H6.84375V66.2175H6.71094C6.08073 66.2175 5.52604 66.3139 5.04688 66.5066C4.57292 66.6993 4.17708 66.9701 3.85938 67.3191C3.54688 67.6628 3.3099 68.0717 3.14844 68.5457C2.98698 69.0144 2.90625 69.5274 2.90625 70.0847V71.9285C2.90625 72.3608 2.95052 72.741 3.03906 73.0691C3.13281 73.392 3.26042 73.6654 3.42188 73.8894C3.58854 74.1082 3.78125 74.2722 4 74.3816C4.22396 74.491 4.46875 74.5457 4.73438 74.5457C5 74.5457 5.23958 74.491 5.45312 74.3816C5.66667 74.2722 5.84896 74.1186 6 73.9207C6.15625 73.7175 6.27344 73.4806 6.35156 73.2097C6.4349 72.9389 6.47656 72.642 6.47656 72.3191C6.47656 72.0014 6.4375 71.7071 6.35938 71.4363C6.28125 71.1654 6.16667 70.9285 6.01562 70.7253C5.86458 70.517 5.67708 70.3582 5.45312 70.2488C5.23438 70.1342 4.98438 70.0769 4.70312 70.0769C4.33854 70.0769 4.01302 70.1628 3.72656 70.3347C3.4401 70.5014 3.21354 70.7201 3.04688 70.991C2.88021 71.2618 2.78906 71.5483 2.77344 71.8503L2.07812 71.5066C2.10417 71.0639 2.19792 70.6576 2.35938 70.2878C2.52604 69.9181 2.7474 69.5951 3.02344 69.3191C3.30469 69.0431 3.63542 68.8295 4.01562 68.6785C4.40104 68.5274 4.82812 68.4519 5.29688 68.4519C5.83854 68.4519 6.3125 68.5561 6.71875 68.7644C7.125 68.9675 7.46094 69.2462 7.72656 69.6003C7.9974 69.9545 8.20052 70.3634 8.33594 70.8269C8.47135 71.2852 8.53906 71.7696 8.53906 72.28C8.53906 72.8269 8.45052 73.3373 8.27344 73.8113C8.10156 74.2852 7.85156 74.6993 7.52344 75.0535C7.19531 75.4076 6.79948 75.6837 6.33594 75.8816C5.8724 76.0795 5.35156 76.1785 4.77344 76.1785C4.16406 76.1785 3.61719 76.0639 3.13281 75.8347C2.65365 75.6056 2.24219 75.2878 1.89844 74.8816C1.55469 74.4753 1.29167 74.0014 1.10938 73.4597C0.927083 72.9181 0.835938 72.3321 0.835938 71.7019V70.8738C0.835938 69.9832 0.958333 69.155 1.20312 68.3894C1.44792 67.6238 1.8099 66.9545 2.28906 66.3816C2.77344 65.8035 3.3724 65.3556 4.08594 65.0378C4.79948 64.7149 5.625 64.5535 6.5625 64.5535ZM17.4922 69.3582V71.2722C17.4922 72.1472 17.4036 72.8946 17.2266 73.5144C17.0495 74.1342 16.7943 74.642 16.4609 75.0378C16.1276 75.4285 15.7292 75.7175 15.2656 75.905C14.8021 76.0873 14.2865 76.1785 13.7188 76.1785C13.2656 76.1785 12.8438 76.1212 12.4531 76.0066C12.0625 75.8868 11.7109 75.7045 11.3984 75.4597C11.0911 75.2097 10.8255 74.892 10.6016 74.5066C10.3828 74.1212 10.2135 73.6602 10.0938 73.1238C9.97917 72.5873 9.92188 71.9701 9.92188 71.2722V69.3582C9.92188 68.4832 10.0104 67.7384 10.1875 67.1238C10.3698 66.5092 10.6276 66.0066 10.9609 65.616C11.2943 65.2253 11.6927 64.9415 12.1562 64.7644C12.6198 64.5821 13.1354 64.491 13.7031 64.491C14.1615 64.491 14.5833 64.5483 14.9688 64.6628C15.3594 64.7774 15.7083 64.9571 16.0156 65.2019C16.3281 65.4415 16.5938 65.754 16.8125 66.1394C17.0312 66.5196 17.1979 66.9779 17.3125 67.5144C17.4323 68.0457 17.4922 68.6602 17.4922 69.3582ZM15.4297 71.5535V69.0691C15.4297 68.6316 15.4036 68.2514 15.3516 67.9285C15.3047 67.6003 15.2344 67.3217 15.1406 67.0925C15.0469 66.8634 14.9297 66.6785 14.7891 66.5378C14.6484 66.392 14.487 66.2852 14.3047 66.2175C14.1224 66.1498 13.9219 66.116 13.7031 66.116C13.4323 66.116 13.1901 66.1707 12.9766 66.28C12.763 66.3842 12.5833 66.5509 12.4375 66.78C12.2917 67.0092 12.1797 67.3139 12.1016 67.6941C12.0286 68.0691 11.9922 68.5274 11.9922 69.0691V71.5535C11.9922 71.991 12.0156 72.3738 12.0625 72.7019C12.1146 73.03 12.1875 73.3113 12.2812 73.5457C12.3802 73.78 12.4974 73.9727 12.6328 74.1238C12.7734 74.2696 12.9349 74.379 13.1172 74.4519C13.2995 74.5196 13.5 74.5535 13.7188 74.5535C13.9948 74.5535 14.237 74.4988 14.4453 74.3894C14.6589 74.28 14.8385 74.1082 14.9844 73.8738C15.1302 73.6342 15.2396 73.3243 15.3125 72.9441C15.3906 72.5587 15.4297 72.0951 15.4297 71.5535Z" fill="#D1D3DC"/>
<path d="M2.86719 199.483L1.21875 199.085L1.85156 193.343H8.10938V195.054H3.5625L3.26562 197.71C3.42708 197.611 3.66146 197.512 3.96875 197.413C4.28125 197.309 4.63281 197.257 5.02344 197.257C5.5651 197.257 6.04948 197.345 6.47656 197.522C6.90365 197.694 7.26562 197.944 7.5625 198.272C7.86458 198.601 8.09115 199.002 8.24219 199.476C8.39844 199.944 8.47656 200.476 8.47656 201.069C8.47656 201.59 8.39844 202.08 8.24219 202.538C8.09115 202.991 7.85938 203.395 7.54688 203.749C7.23438 204.098 6.84115 204.374 6.36719 204.577C5.89323 204.775 5.33594 204.874 4.69531 204.874C4.21094 204.874 3.74479 204.804 3.29688 204.663C2.85417 204.517 2.45573 204.306 2.10156 204.03C1.7474 203.749 1.46354 203.405 1.25 202.999C1.04167 202.593 0.927083 202.127 0.90625 201.601H2.94531C2.98177 201.95 3.07552 202.246 3.22656 202.491C3.3776 202.736 3.57552 202.924 3.82031 203.054C4.07031 203.184 4.35938 203.249 4.6875 203.249C4.98438 203.249 5.23958 203.194 5.45312 203.085C5.67188 202.97 5.85156 202.812 5.99219 202.608C6.13281 202.405 6.23698 202.166 6.30469 201.89C6.3724 201.614 6.40625 201.312 6.40625 200.983C6.40625 200.666 6.36719 200.377 6.28906 200.116C6.21094 199.851 6.09115 199.621 5.92969 199.429C5.76823 199.236 5.5651 199.088 5.32031 198.983C5.08073 198.879 4.79948 198.827 4.47656 198.827C4.04427 198.827 3.71094 198.892 3.47656 199.022C3.2474 199.153 3.04427 199.306 2.86719 199.483ZM17.4922 198.054V199.968C17.4922 200.843 17.4036 201.59 17.2266 202.21C17.0495 202.83 16.7943 203.338 16.4609 203.733C16.1276 204.124 15.7292 204.413 15.2656 204.601C14.8021 204.783 14.2865 204.874 13.7188 204.874C13.2656 204.874 12.8438 204.817 12.4531 204.702C12.0625 204.582 11.7109 204.4 11.3984 204.155C11.0911 203.905 10.8255 203.588 10.6016 203.202C10.3828 202.817 10.2135 202.356 10.0938 201.819C9.97917 201.283 9.92188 200.666 9.92188 199.968V198.054C9.92188 197.179 10.0104 196.434 10.1875 195.819C10.3698 195.205 10.6276 194.702 10.9609 194.312C11.2943 193.921 11.6927 193.637 12.1562 193.46C12.6198 193.278 13.1354 193.187 13.7031 193.187C14.1615 193.187 14.5833 193.244 14.9688 193.358C15.3594 193.473 15.7083 193.653 16.0156 193.897C16.3281 194.137 16.5938 194.45 16.8125 194.835C17.0312 195.215 17.1979 195.674 17.3125 196.21C17.4323 196.741 17.4922 197.356 17.4922 198.054ZM15.4297 200.249V197.765C15.4297 197.327 15.4036 196.947 15.3516 196.624C15.3047 196.296 15.2344 196.017 15.1406 195.788C15.0469 195.559 14.9297 195.374 14.7891 195.233C14.6484 195.088 14.487 194.981 14.3047 194.913C14.1224 194.845 13.9219 194.812 13.7031 194.812C13.4323 194.812 13.1901 194.866 12.9766 194.976C12.763 195.08 12.5833 195.246 12.4375 195.476C12.2917 195.705 12.1797 196.009 12.1016 196.39C12.0286 196.765 11.9922 197.223 11.9922 197.765V200.249C11.9922 200.687 12.0156 201.069 12.0625 201.397C12.1146 201.726 12.1875 202.007 12.2812 202.241C12.3802 202.476 12.4974 202.668 12.6328 202.819C12.7734 202.965 12.9349 203.075 13.1172 203.147C13.2995 203.215 13.5 203.249 13.7188 203.249C13.9948 203.249 14.237 203.194 14.4453 203.085C14.6589 202.976 14.8385 202.804 14.9844 202.569C15.1302 202.33 15.2396 202.02 15.3125 201.64C15.3906 201.254 15.4297 200.791 15.4297 200.249Z" fill="#D1D3DC"/>
<path d="M22.3984 289.812V291H14.9531V289.961L18.6797 285.812C19.138 285.302 19.4922 284.87 19.7422 284.516C19.9974 284.156 20.1745 283.836 20.2734 283.555C20.3776 283.268 20.4297 282.977 20.4297 282.68C20.4297 282.305 20.3516 281.966 20.1953 281.664C20.0443 281.357 19.8203 281.112 19.5234 280.93C19.2266 280.747 18.8672 280.656 18.4453 280.656C17.9401 280.656 17.5182 280.755 17.1797 280.953C16.8464 281.146 16.5964 281.417 16.4297 281.766C16.263 282.115 16.1797 282.516 16.1797 282.969H14.7344C14.7344 282.328 14.875 281.742 15.1562 281.211C15.4375 280.68 15.8542 280.258 16.4062 279.945C16.9583 279.628 17.638 279.469 18.4453 279.469C19.1641 279.469 19.7786 279.596 20.2891 279.852C20.7995 280.102 21.1901 280.456 21.4609 280.914C21.737 281.367 21.875 281.898 21.875 282.508C21.875 282.841 21.8177 283.18 21.7031 283.523C21.5938 283.862 21.4401 284.201 21.2422 284.539C21.0495 284.878 20.8229 285.211 20.5625 285.539C20.3073 285.867 20.0339 286.19 19.7422 286.508L16.6953 289.812H22.3984ZM31.0859 284.406V286.141C31.0859 287.073 31.0026 287.859 30.8359 288.5C30.6693 289.141 30.4297 289.656 30.1172 290.047C29.8047 290.438 29.4271 290.721 28.9844 290.898C28.5469 291.07 28.0521 291.156 27.5 291.156C27.0625 291.156 26.6589 291.102 26.2891 290.992C25.9193 290.883 25.5859 290.708 25.2891 290.469C24.9974 290.224 24.7474 289.906 24.5391 289.516C24.3307 289.125 24.1719 288.651 24.0625 288.094C23.9531 287.536 23.8984 286.885 23.8984 286.141V284.406C23.8984 283.474 23.9818 282.693 24.1484 282.062C24.3203 281.432 24.5625 280.927 24.875 280.547C25.1875 280.161 25.5625 279.885 26 279.719C26.4427 279.552 26.9375 279.469 27.4844 279.469C27.9271 279.469 28.3333 279.523 28.7031 279.633C29.0781 279.737 29.4115 279.906 29.7031 280.141C29.9948 280.37 30.2422 280.677 30.4453 281.062C30.6536 281.443 30.8125 281.909 30.9219 282.461C31.0312 283.013 31.0859 283.661 31.0859 284.406ZM29.6328 286.375V284.164C29.6328 283.654 29.6016 283.206 29.5391 282.82C29.4818 282.43 29.3958 282.096 29.2812 281.82C29.1667 281.544 29.0208 281.32 28.8438 281.148C28.6719 280.977 28.4714 280.852 28.2422 280.773C28.0182 280.69 27.7656 280.648 27.4844 280.648C27.1406 280.648 26.8359 280.714 26.5703 280.844C26.3047 280.969 26.0807 281.169 25.8984 281.445C25.7214 281.721 25.5859 282.083 25.4922 282.531C25.3984 282.979 25.3516 283.523 25.3516 284.164V286.375C25.3516 286.885 25.3802 287.336 25.4375 287.727C25.5 288.117 25.5911 288.456 25.7109 288.742C25.8307 289.023 25.9766 289.255 26.1484 289.438C26.3203 289.62 26.5182 289.755 26.7422 289.844C26.9714 289.927 27.224 289.969 27.5 289.969C27.8542 289.969 28.1641 289.901 28.4297 289.766C28.6953 289.63 28.9167 289.419 29.0938 289.133C29.276 288.841 29.4115 288.469 29.5 288.016C29.5885 287.557 29.6328 287.01 29.6328 286.375ZM37.6953 279.562V291H36.25V281.367L33.3359 282.43V281.125L37.4688 279.562H37.6953ZM47.4922 279.609H47.6172V280.836H47.4922C46.7266 280.836 46.0859 280.961 45.5703 281.211C45.0547 281.456 44.6458 281.786 44.3438 282.203C44.0417 282.615 43.8229 283.078 43.6875 283.594C43.5573 284.109 43.4922 284.633 43.4922 285.164V286.836C43.4922 287.341 43.5521 287.789 43.6719 288.18C43.7917 288.565 43.9557 288.891 44.1641 289.156C44.3724 289.422 44.6068 289.622 44.8672 289.758C45.1328 289.893 45.4089 289.961 45.6953 289.961C46.0286 289.961 46.3255 289.898 46.5859 289.773C46.8464 289.643 47.0651 289.464 47.2422 289.234C47.4245 289 47.5625 288.724 47.6562 288.406C47.75 288.089 47.7969 287.74 47.7969 287.359C47.7969 287.021 47.7552 286.695 47.6719 286.383C47.5885 286.065 47.4609 285.784 47.2891 285.539C47.1172 285.289 46.901 285.094 46.6406 284.953C46.3854 284.807 46.0807 284.734 45.7266 284.734C45.3255 284.734 44.9505 284.833 44.6016 285.031C44.2578 285.224 43.974 285.479 43.75 285.797C43.5312 286.109 43.4062 286.451 43.375 286.82L42.6094 286.812C42.6823 286.229 42.8177 285.732 43.0156 285.32C43.2188 284.904 43.4688 284.565 43.7656 284.305C44.0677 284.039 44.4036 283.846 44.7734 283.727C45.1484 283.602 45.5443 283.539 45.9609 283.539C46.5286 283.539 47.0182 283.646 47.4297 283.859C47.8411 284.073 48.1797 284.359 48.4453 284.719C48.7109 285.073 48.9062 285.474 49.0312 285.922C49.1615 286.365 49.2266 286.82 49.2266 287.289C49.2266 287.826 49.151 288.328 49 288.797C48.849 289.266 48.6224 289.677 48.3203 290.031C48.0234 290.385 47.6562 290.661 47.2188 290.859C46.7812 291.057 46.2734 291.156 45.6953 291.156C45.0807 291.156 44.5443 291.031 44.0859 290.781C43.6276 290.526 43.2474 290.188 42.9453 289.766C42.6432 289.344 42.4167 288.875 42.2656 288.359C42.1146 287.844 42.0391 287.32 42.0391 286.789V286.109C42.0391 285.307 42.1198 284.521 42.2812 283.75C42.4427 282.979 42.7214 282.281 43.1172 281.656C43.5182 281.031 44.0729 280.534 44.7812 280.164C45.4896 279.794 46.3932 279.609 47.4922 279.609Z" fill="#D1D3DC"/>
<path d="M86.3984 289.812V291H78.9531V289.961L82.6797 285.812C83.138 285.302 83.4922 284.87 83.7422 284.516C83.9974 284.156 84.1745 283.836 84.2734 283.555C84.3776 283.268 84.4297 282.977 84.4297 282.68C84.4297 282.305 84.3516 281.966 84.1953 281.664C84.0443 281.357 83.8203 281.112 83.5234 280.93C83.2266 280.747 82.8672 280.656 82.4453 280.656C81.9401 280.656 81.5182 280.755 81.1797 280.953C80.8464 281.146 80.5964 281.417 80.4297 281.766C80.263 282.115 80.1797 282.516 80.1797 282.969H78.7344C78.7344 282.328 78.875 281.742 79.1562 281.211C79.4375 280.68 79.8542 280.258 80.4062 279.945C80.9583 279.628 81.638 279.469 82.4453 279.469C83.1641 279.469 83.7786 279.596 84.2891 279.852C84.7995 280.102 85.1901 280.456 85.4609 280.914C85.737 281.367 85.875 281.898 85.875 282.508C85.875 282.841 85.8177 283.18 85.7031 283.523C85.5938 283.862 85.4401 284.201 85.2422 284.539C85.0495 284.878 84.8229 285.211 84.5625 285.539C84.3073 285.867 84.0339 286.19 83.7422 286.508L80.6953 289.812H86.3984ZM95.0859 284.406V286.141C95.0859 287.073 95.0026 287.859 94.8359 288.5C94.6693 289.141 94.4297 289.656 94.1172 290.047C93.8047 290.438 93.4271 290.721 92.9844 290.898C92.5469 291.07 92.0521 291.156 91.5 291.156C91.0625 291.156 90.6589 291.102 90.2891 290.992C89.9193 290.883 89.5859 290.708 89.2891 290.469C88.9974 290.224 88.7474 289.906 88.5391 289.516C88.3307 289.125 88.1719 288.651 88.0625 288.094C87.9531 287.536 87.8984 286.885 87.8984 286.141V284.406C87.8984 283.474 87.9818 282.693 88.1484 282.062C88.3203 281.432 88.5625 280.927 88.875 280.547C89.1875 280.161 89.5625 279.885 90 279.719C90.4427 279.552 90.9375 279.469 91.4844 279.469C91.9271 279.469 92.3333 279.523 92.7031 279.633C93.0781 279.737 93.4115 279.906 93.7031 280.141C93.9948 280.37 94.2422 280.677 94.4453 281.062C94.6536 281.443 94.8125 281.909 94.9219 282.461C95.0312 283.013 95.0859 283.661 95.0859 284.406ZM93.6328 286.375V284.164C93.6328 283.654 93.6016 283.206 93.5391 282.82C93.4818 282.43 93.3958 282.096 93.2812 281.82C93.1667 281.544 93.0208 281.32 92.8438 281.148C92.6719 280.977 92.4714 280.852 92.2422 280.773C92.0182 280.69 91.7656 280.648 91.4844 280.648C91.1406 280.648 90.8359 280.714 90.5703 280.844C90.3047 280.969 90.0807 281.169 89.8984 281.445C89.7214 281.721 89.5859 282.083 89.4922 282.531C89.3984 282.979 89.3516 283.523 89.3516 284.164V286.375C89.3516 286.885 89.3802 287.336 89.4375 287.727C89.5 288.117 89.5911 288.456 89.7109 288.742C89.8307 289.023 89.9766 289.255 90.1484 289.438C90.3203 289.62 90.5182 289.755 90.7422 289.844C90.9714 289.927 91.224 289.969 91.5 289.969C91.8542 289.969 92.1641 289.901 92.4297 289.766C92.6953 289.63 92.9167 289.419 93.0938 289.133C93.276 288.841 93.4115 288.469 93.5 288.016C93.5885 287.557 93.6328 287.01 93.6328 286.375ZM101.695 279.562V291H100.25V281.367L97.3359 282.43V281.125L101.469 279.562H101.695ZM113.297 279.625V280.438L108.586 291H107.062L111.766 280.812H105.609V279.625H113.297Z" fill="#D1D3DC"/>
<path d="M150.398 289.812V291H142.953V289.961L146.68 285.812C147.138 285.302 147.492 284.87 147.742 284.516C147.997 284.156 148.174 283.836 148.273 283.555C148.378 283.268 148.43 282.977 148.43 282.68C148.43 282.305 148.352 281.966 148.195 281.664C148.044 281.357 147.82 281.112 147.523 280.93C147.227 280.747 146.867 280.656 146.445 280.656C145.94 280.656 145.518 280.755 145.18 280.953C144.846 281.146 144.596 281.417 144.43 281.766C144.263 282.115 144.18 282.516 144.18 282.969H142.734C142.734 282.328 142.875 281.742 143.156 281.211C143.438 280.68 143.854 280.258 144.406 279.945C144.958 279.628 145.638 279.469 146.445 279.469C147.164 279.469 147.779 279.596 148.289 279.852C148.799 280.102 149.19 280.456 149.461 280.914C149.737 281.367 149.875 281.898 149.875 282.508C149.875 282.841 149.818 283.18 149.703 283.523C149.594 283.862 149.44 284.201 149.242 284.539C149.049 284.878 148.823 285.211 148.562 285.539C148.307 285.867 148.034 286.19 147.742 286.508L144.695 289.812H150.398ZM159.086 284.406V286.141C159.086 287.073 159.003 287.859 158.836 288.5C158.669 289.141 158.43 289.656 158.117 290.047C157.805 290.438 157.427 290.721 156.984 290.898C156.547 291.07 156.052 291.156 155.5 291.156C155.062 291.156 154.659 291.102 154.289 290.992C153.919 290.883 153.586 290.708 153.289 290.469C152.997 290.224 152.747 289.906 152.539 289.516C152.331 289.125 152.172 288.651 152.062 288.094C151.953 287.536 151.898 286.885 151.898 286.141V284.406C151.898 283.474 151.982 282.693 152.148 282.062C152.32 281.432 152.562 280.927 152.875 280.547C153.188 280.161 153.562 279.885 154 279.719C154.443 279.552 154.938 279.469 155.484 279.469C155.927 279.469 156.333 279.523 156.703 279.633C157.078 279.737 157.411 279.906 157.703 280.141C157.995 280.37 158.242 280.677 158.445 281.062C158.654 281.443 158.812 281.909 158.922 282.461C159.031 283.013 159.086 283.661 159.086 284.406ZM157.633 286.375V284.164C157.633 283.654 157.602 283.206 157.539 282.82C157.482 282.43 157.396 282.096 157.281 281.82C157.167 281.544 157.021 281.32 156.844 281.148C156.672 280.977 156.471 280.852 156.242 280.773C156.018 280.69 155.766 280.648 155.484 280.648C155.141 280.648 154.836 280.714 154.57 280.844C154.305 280.969 154.081 281.169 153.898 281.445C153.721 281.721 153.586 282.083 153.492 282.531C153.398 282.979 153.352 283.523 153.352 284.164V286.375C153.352 286.885 153.38 287.336 153.438 287.727C153.5 288.117 153.591 288.456 153.711 288.742C153.831 289.023 153.977 289.255 154.148 289.438C154.32 289.62 154.518 289.755 154.742 289.844C154.971 289.927 155.224 289.969 155.5 289.969C155.854 289.969 156.164 289.901 156.43 289.766C156.695 289.63 156.917 289.419 157.094 289.133C157.276 288.841 157.411 288.469 157.5 288.016C157.589 287.557 157.633 287.01 157.633 286.375ZM165.695 279.562V291H164.25V281.367L161.336 282.43V281.125L165.469 279.562H165.695ZM177.117 287.922C177.117 288.615 176.956 289.203 176.633 289.688C176.315 290.167 175.883 290.531 175.336 290.781C174.794 291.031 174.182 291.156 173.5 291.156C172.818 291.156 172.203 291.031 171.656 290.781C171.109 290.531 170.677 290.167 170.359 289.688C170.042 289.203 169.883 288.615 169.883 287.922C169.883 287.469 169.969 287.055 170.141 286.68C170.318 286.299 170.565 285.969 170.883 285.688C171.206 285.406 171.586 285.19 172.023 285.039C172.466 284.883 172.953 284.805 173.484 284.805C174.182 284.805 174.805 284.94 175.352 285.211C175.898 285.477 176.328 285.844 176.641 286.312C176.958 286.781 177.117 287.318 177.117 287.922ZM175.664 287.891C175.664 287.469 175.573 287.096 175.391 286.773C175.208 286.445 174.953 286.19 174.625 286.008C174.297 285.826 173.917 285.734 173.484 285.734C173.042 285.734 172.659 285.826 172.336 286.008C172.018 286.19 171.771 286.445 171.594 286.773C171.417 287.096 171.328 287.469 171.328 287.891C171.328 288.328 171.414 288.703 171.586 289.016C171.763 289.323 172.013 289.56 172.336 289.727C172.664 289.888 173.052 289.969 173.5 289.969C173.948 289.969 174.333 289.888 174.656 289.727C174.979 289.56 175.227 289.323 175.398 289.016C175.576 288.703 175.664 288.328 175.664 287.891ZM176.852 282.586C176.852 283.138 176.706 283.635 176.414 284.078C176.122 284.521 175.724 284.87 175.219 285.125C174.714 285.38 174.141 285.508 173.5 285.508C172.849 285.508 172.268 285.38 171.758 285.125C171.253 284.87 170.857 284.521 170.57 284.078C170.284 283.635 170.141 283.138 170.141 282.586C170.141 281.924 170.284 281.362 170.57 280.898C170.862 280.435 171.26 280.081 171.766 279.836C172.271 279.591 172.846 279.469 173.492 279.469C174.143 279.469 174.721 279.591 175.227 279.836C175.732 280.081 176.128 280.435 176.414 280.898C176.706 281.362 176.852 281.924 176.852 282.586ZM175.406 282.609C175.406 282.229 175.326 281.893 175.164 281.602C175.003 281.31 174.779 281.081 174.492 280.914C174.206 280.742 173.872 280.656 173.492 280.656C173.112 280.656 172.779 280.737 172.492 280.898C172.211 281.055 171.99 281.279 171.828 281.57C171.672 281.862 171.594 282.208 171.594 282.609C171.594 283 171.672 283.341 171.828 283.633C171.99 283.924 172.214 284.151 172.5 284.312C172.786 284.474 173.12 284.555 173.5 284.555C173.88 284.555 174.211 284.474 174.492 284.312C174.779 284.151 175.003 283.924 175.164 283.633C175.326 283.341 175.406 283 175.406 282.609Z" fill="#D1D3DC"/>
<path d="M214.398 289.812V291H206.953V289.961L210.68 285.812C211.138 285.302 211.492 284.87 211.742 284.516C211.997 284.156 212.174 283.836 212.273 283.555C212.378 283.268 212.43 282.977 212.43 282.68C212.43 282.305 212.352 281.966 212.195 281.664C212.044 281.357 211.82 281.112 211.523 280.93C211.227 280.747 210.867 280.656 210.445 280.656C209.94 280.656 209.518 280.755 209.18 280.953C208.846 281.146 208.596 281.417 208.43 281.766C208.263 282.115 208.18 282.516 208.18 282.969H206.734C206.734 282.328 206.875 281.742 207.156 281.211C207.438 280.68 207.854 280.258 208.406 279.945C208.958 279.628 209.638 279.469 210.445 279.469C211.164 279.469 211.779 279.596 212.289 279.852C212.799 280.102 213.19 280.456 213.461 280.914C213.737 281.367 213.875 281.898 213.875 282.508C213.875 282.841 213.818 283.18 213.703 283.523C213.594 283.862 213.44 284.201 213.242 284.539C213.049 284.878 212.823 285.211 212.562 285.539C212.307 285.867 212.034 286.19 211.742 286.508L208.695 289.812H214.398ZM223.086 284.406V286.141C223.086 287.073 223.003 287.859 222.836 288.5C222.669 289.141 222.43 289.656 222.117 290.047C221.805 290.438 221.427 290.721 220.984 290.898C220.547 291.07 220.052 291.156 219.5 291.156C219.062 291.156 218.659 291.102 218.289 290.992C217.919 290.883 217.586 290.708 217.289 290.469C216.997 290.224 216.747 289.906 216.539 289.516C216.331 289.125 216.172 288.651 216.062 288.094C215.953 287.536 215.898 286.885 215.898 286.141V284.406C215.898 283.474 215.982 282.693 216.148 282.062C216.32 281.432 216.562 280.927 216.875 280.547C217.188 280.161 217.562 279.885 218 279.719C218.443 279.552 218.938 279.469 219.484 279.469C219.927 279.469 220.333 279.523 220.703 279.633C221.078 279.737 221.411 279.906 221.703 280.141C221.995 280.37 222.242 280.677 222.445 281.062C222.654 281.443 222.812 281.909 222.922 282.461C223.031 283.013 223.086 283.661 223.086 284.406ZM221.633 286.375V284.164C221.633 283.654 221.602 283.206 221.539 282.82C221.482 282.43 221.396 282.096 221.281 281.82C221.167 281.544 221.021 281.32 220.844 281.148C220.672 280.977 220.471 280.852 220.242 280.773C220.018 280.69 219.766 280.648 219.484 280.648C219.141 280.648 218.836 280.714 218.57 280.844C218.305 280.969 218.081 281.169 217.898 281.445C217.721 281.721 217.586 282.083 217.492 282.531C217.398 282.979 217.352 283.523 217.352 284.164V286.375C217.352 286.885 217.38 287.336 217.438 287.727C217.5 288.117 217.591 288.456 217.711 288.742C217.831 289.023 217.977 289.255 218.148 289.438C218.32 289.62 218.518 289.755 218.742 289.844C218.971 289.927 219.224 289.969 219.5 289.969C219.854 289.969 220.164 289.901 220.43 289.766C220.695 289.63 220.917 289.419 221.094 289.133C221.276 288.841 221.411 288.469 221.5 288.016C221.589 287.557 221.633 287.01 221.633 286.375ZM229.695 279.562V291H228.25V281.367L225.336 282.43V281.125L229.469 279.562H229.695ZM235.383 289.789H235.531C236.365 289.789 237.042 289.672 237.562 289.438C238.083 289.203 238.484 288.888 238.766 288.492C239.047 288.096 239.24 287.651 239.344 287.156C239.448 286.656 239.5 286.143 239.5 285.617V283.875C239.5 283.359 239.44 282.901 239.32 282.5C239.206 282.099 239.044 281.763 238.836 281.492C238.633 281.221 238.401 281.016 238.141 280.875C237.88 280.734 237.604 280.664 237.312 280.664C236.979 280.664 236.68 280.732 236.414 280.867C236.154 280.997 235.932 281.182 235.75 281.422C235.573 281.661 235.438 281.943 235.344 282.266C235.25 282.589 235.203 282.94 235.203 283.32C235.203 283.659 235.245 283.987 235.328 284.305C235.411 284.622 235.539 284.909 235.711 285.164C235.883 285.419 236.096 285.622 236.352 285.773C236.612 285.919 236.917 285.992 237.266 285.992C237.589 285.992 237.891 285.93 238.172 285.805C238.458 285.674 238.711 285.5 238.93 285.281C239.154 285.057 239.331 284.805 239.461 284.523C239.596 284.242 239.674 283.948 239.695 283.641H240.383C240.383 284.073 240.297 284.5 240.125 284.922C239.958 285.339 239.724 285.719 239.422 286.062C239.12 286.406 238.766 286.682 238.359 286.891C237.953 287.094 237.51 287.195 237.031 287.195C236.469 287.195 235.982 287.086 235.57 286.867C235.159 286.648 234.82 286.357 234.555 285.992C234.294 285.628 234.099 285.221 233.969 284.773C233.844 284.32 233.781 283.862 233.781 283.398C233.781 282.857 233.857 282.349 234.008 281.875C234.159 281.401 234.383 280.984 234.68 280.625C234.977 280.26 235.344 279.977 235.781 279.773C236.224 279.57 236.734 279.469 237.312 279.469C237.964 279.469 238.518 279.599 238.977 279.859C239.435 280.12 239.807 280.469 240.094 280.906C240.385 281.344 240.599 281.836 240.734 282.383C240.87 282.93 240.938 283.492 240.938 284.07V284.594C240.938 285.182 240.898 285.781 240.82 286.391C240.747 286.995 240.604 287.573 240.391 288.125C240.182 288.677 239.878 289.172 239.477 289.609C239.076 290.042 238.552 290.385 237.906 290.641C237.266 290.891 236.474 291.016 235.531 291.016H235.383V289.789Z" fill="#D1D3DC"/>
<path d="M278.398 289.812V291H270.953V289.961L274.68 285.812C275.138 285.302 275.492 284.87 275.742 284.516C275.997 284.156 276.174 283.836 276.273 283.555C276.378 283.268 276.43 282.977 276.43 282.68C276.43 282.305 276.352 281.966 276.195 281.664C276.044 281.357 275.82 281.112 275.523 280.93C275.227 280.747 274.867 280.656 274.445 280.656C273.94 280.656 273.518 280.755 273.18 280.953C272.846 281.146 272.596 281.417 272.43 281.766C272.263 282.115 272.18 282.516 272.18 282.969H270.734C270.734 282.328 270.875 281.742 271.156 281.211C271.438 280.68 271.854 280.258 272.406 279.945C272.958 279.628 273.638 279.469 274.445 279.469C275.164 279.469 275.779 279.596 276.289 279.852C276.799 280.102 277.19 280.456 277.461 280.914C277.737 281.367 277.875 281.898 277.875 282.508C277.875 282.841 277.818 283.18 277.703 283.523C277.594 283.862 277.44 284.201 277.242 284.539C277.049 284.878 276.823 285.211 276.562 285.539C276.307 285.867 276.034 286.19 275.742 286.508L272.695 289.812H278.398ZM287.086 284.406V286.141C287.086 287.073 287.003 287.859 286.836 288.5C286.669 289.141 286.43 289.656 286.117 290.047C285.805 290.438 285.427 290.721 284.984 290.898C284.547 291.07 284.052 291.156 283.5 291.156C283.062 291.156 282.659 291.102 282.289 290.992C281.919 290.883 281.586 290.708 281.289 290.469C280.997 290.224 280.747 289.906 280.539 289.516C280.331 289.125 280.172 288.651 280.062 288.094C279.953 287.536 279.898 286.885 279.898 286.141V284.406C279.898 283.474 279.982 282.693 280.148 282.062C280.32 281.432 280.562 280.927 280.875 280.547C281.188 280.161 281.562 279.885 282 279.719C282.443 279.552 282.938 279.469 283.484 279.469C283.927 279.469 284.333 279.523 284.703 279.633C285.078 279.737 285.411 279.906 285.703 280.141C285.995 280.37 286.242 280.677 286.445 281.062C286.654 281.443 286.812 281.909 286.922 282.461C287.031 283.013 287.086 283.661 287.086 284.406ZM285.633 286.375V284.164C285.633 283.654 285.602 283.206 285.539 282.82C285.482 282.43 285.396 282.096 285.281 281.82C285.167 281.544 285.021 281.32 284.844 281.148C284.672 280.977 284.471 280.852 284.242 280.773C284.018 280.69 283.766 280.648 283.484 280.648C283.141 280.648 282.836 280.714 282.57 280.844C282.305 280.969 282.081 281.169 281.898 281.445C281.721 281.721 281.586 282.083 281.492 282.531C281.398 282.979 281.352 283.523 281.352 284.164V286.375C281.352 286.885 281.38 287.336 281.438 287.727C281.5 288.117 281.591 288.456 281.711 288.742C281.831 289.023 281.977 289.255 282.148 289.438C282.32 289.62 282.518 289.755 282.742 289.844C282.971 289.927 283.224 289.969 283.5 289.969C283.854 289.969 284.164 289.901 284.43 289.766C284.695 289.63 284.917 289.419 285.094 289.133C285.276 288.841 285.411 288.469 285.5 288.016C285.589 287.557 285.633 287.01 285.633 286.375ZM296.398 289.812V291H288.953V289.961L292.68 285.812C293.138 285.302 293.492 284.87 293.742 284.516C293.997 284.156 294.174 283.836 294.273 283.555C294.378 283.268 294.43 282.977 294.43 282.68C294.43 282.305 294.352 281.966 294.195 281.664C294.044 281.357 293.82 281.112 293.523 280.93C293.227 280.747 292.867 280.656 292.445 280.656C291.94 280.656 291.518 280.755 291.18 280.953C290.846 281.146 290.596 281.417 290.43 281.766C290.263 282.115 290.18 282.516 290.18 282.969H288.734C288.734 282.328 288.875 281.742 289.156 281.211C289.438 280.68 289.854 280.258 290.406 279.945C290.958 279.628 291.638 279.469 292.445 279.469C293.164 279.469 293.779 279.596 294.289 279.852C294.799 280.102 295.19 280.456 295.461 280.914C295.737 281.367 295.875 281.898 295.875 282.508C295.875 282.841 295.818 283.18 295.703 283.523C295.594 283.862 295.44 284.201 295.242 284.539C295.049 284.878 294.823 285.211 294.562 285.539C294.307 285.867 294.034 286.19 293.742 286.508L290.695 289.812H296.398ZM305.086 284.406V286.141C305.086 287.073 305.003 287.859 304.836 288.5C304.669 289.141 304.43 289.656 304.117 290.047C303.805 290.438 303.427 290.721 302.984 290.898C302.547 291.07 302.052 291.156 301.5 291.156C301.062 291.156 300.659 291.102 300.289 290.992C299.919 290.883 299.586 290.708 299.289 290.469C298.997 290.224 298.747 289.906 298.539 289.516C298.331 289.125 298.172 288.651 298.062 288.094C297.953 287.536 297.898 286.885 297.898 286.141V284.406C297.898 283.474 297.982 282.693 298.148 282.062C298.32 281.432 298.562 280.927 298.875 280.547C299.188 280.161 299.562 279.885 300 279.719C300.443 279.552 300.938 279.469 301.484 279.469C301.927 279.469 302.333 279.523 302.703 279.633C303.078 279.737 303.411 279.906 303.703 280.141C303.995 280.37 304.242 280.677 304.445 281.062C304.654 281.443 304.812 281.909 304.922 282.461C305.031 283.013 305.086 283.661 305.086 284.406ZM303.633 286.375V284.164C303.633 283.654 303.602 283.206 303.539 282.82C303.482 282.43 303.396 282.096 303.281 281.82C303.167 281.544 303.021 281.32 302.844 281.148C302.672 280.977 302.471 280.852 302.242 280.773C302.018 280.69 301.766 280.648 301.484 280.648C301.141 280.648 300.836 280.714 300.57 280.844C300.305 280.969 300.081 281.169 299.898 281.445C299.721 281.721 299.586 282.083 299.492 282.531C299.398 282.979 299.352 283.523 299.352 284.164V286.375C299.352 286.885 299.38 287.336 299.438 287.727C299.5 288.117 299.591 288.456 299.711 288.742C299.831 289.023 299.977 289.255 300.148 289.438C300.32 289.62 300.518 289.755 300.742 289.844C300.971 289.927 301.224 289.969 301.5 289.969C301.854 289.969 302.164 289.901 302.43 289.766C302.695 289.63 302.917 289.419 303.094 289.133C303.276 288.841 303.411 288.469 303.5 288.016C303.589 287.557 303.633 287.01 303.633 286.375Z" fill="#D1D3DC"/>
<path d="M342.398 289.812V291H334.953V289.961L338.68 285.812C339.138 285.302 339.492 284.87 339.742 284.516C339.997 284.156 340.174 283.836 340.273 283.555C340.378 283.268 340.43 282.977 340.43 282.68C340.43 282.305 340.352 281.966 340.195 281.664C340.044 281.357 339.82 281.112 339.523 280.93C339.227 280.747 338.867 280.656 338.445 280.656C337.94 280.656 337.518 280.755 337.18 280.953C336.846 281.146 336.596 281.417 336.43 281.766C336.263 282.115 336.18 282.516 336.18 282.969H334.734C334.734 282.328 334.875 281.742 335.156 281.211C335.438 280.68 335.854 280.258 336.406 279.945C336.958 279.628 337.638 279.469 338.445 279.469C339.164 279.469 339.779 279.596 340.289 279.852C340.799 280.102 341.19 280.456 341.461 280.914C341.737 281.367 341.875 281.898 341.875 282.508C341.875 282.841 341.818 283.18 341.703 283.523C341.594 283.862 341.44 284.201 341.242 284.539C341.049 284.878 340.823 285.211 340.562 285.539C340.307 285.867 340.034 286.19 339.742 286.508L336.695 289.812H342.398ZM351.086 284.406V286.141C351.086 287.073 351.003 287.859 350.836 288.5C350.669 289.141 350.43 289.656 350.117 290.047C349.805 290.438 349.427 290.721 348.984 290.898C348.547 291.07 348.052 291.156 347.5 291.156C347.062 291.156 346.659 291.102 346.289 290.992C345.919 290.883 345.586 290.708 345.289 290.469C344.997 290.224 344.747 289.906 344.539 289.516C344.331 289.125 344.172 288.651 344.062 288.094C343.953 287.536 343.898 286.885 343.898 286.141V284.406C343.898 283.474 343.982 282.693 344.148 282.062C344.32 281.432 344.562 280.927 344.875 280.547C345.188 280.161 345.562 279.885 346 279.719C346.443 279.552 346.938 279.469 347.484 279.469C347.927 279.469 348.333 279.523 348.703 279.633C349.078 279.737 349.411 279.906 349.703 280.141C349.995 280.37 350.242 280.677 350.445 281.062C350.654 281.443 350.812 281.909 350.922 282.461C351.031 283.013 351.086 283.661 351.086 284.406ZM349.633 286.375V284.164C349.633 283.654 349.602 283.206 349.539 282.82C349.482 282.43 349.396 282.096 349.281 281.82C349.167 281.544 349.021 281.32 348.844 281.148C348.672 280.977 348.471 280.852 348.242 280.773C348.018 280.69 347.766 280.648 347.484 280.648C347.141 280.648 346.836 280.714 346.57 280.844C346.305 280.969 346.081 281.169 345.898 281.445C345.721 281.721 345.586 282.083 345.492 282.531C345.398 282.979 345.352 283.523 345.352 284.164V286.375C345.352 286.885 345.38 287.336 345.438 287.727C345.5 288.117 345.591 288.456 345.711 288.742C345.831 289.023 345.977 289.255 346.148 289.438C346.32 289.62 346.518 289.755 346.742 289.844C346.971 289.927 347.224 289.969 347.5 289.969C347.854 289.969 348.164 289.901 348.43 289.766C348.695 289.63 348.917 289.419 349.094 289.133C349.276 288.841 349.411 288.469 349.5 288.016C349.589 287.557 349.633 287.01 349.633 286.375ZM360.398 289.812V291H352.953V289.961L356.68 285.812C357.138 285.302 357.492 284.87 357.742 284.516C357.997 284.156 358.174 283.836 358.273 283.555C358.378 283.268 358.43 282.977 358.43 282.68C358.43 282.305 358.352 281.966 358.195 281.664C358.044 281.357 357.82 281.112 357.523 280.93C357.227 280.747 356.867 280.656 356.445 280.656C355.94 280.656 355.518 280.755 355.18 280.953C354.846 281.146 354.596 281.417 354.43 281.766C354.263 282.115 354.18 282.516 354.18 282.969H352.734C352.734 282.328 352.875 281.742 353.156 281.211C353.438 280.68 353.854 280.258 354.406 279.945C354.958 279.628 355.638 279.469 356.445 279.469C357.164 279.469 357.779 279.596 358.289 279.852C358.799 280.102 359.19 280.456 359.461 280.914C359.737 281.367 359.875 281.898 359.875 282.508C359.875 282.841 359.818 283.18 359.703 283.523C359.594 283.862 359.44 284.201 359.242 284.539C359.049 284.878 358.823 285.211 358.562 285.539C358.307 285.867 358.034 286.19 357.742 286.508L354.695 289.812H360.398ZM366.695 279.562V291H365.25V281.367L362.336 282.43V281.125L366.469 279.562H366.695Z" fill="#D1D3DC"/>
<defs>
<linearGradient id="paint0_linear_34_1832" x1="210.369" y1="-149.884" x2="210.377" y2="267.71" gradientUnits="userSpaceOnUse">
<stop stop-color="#680096"/>
<stop offset="1" stop-color="#A639FB" stop-opacity="0"/>
</linearGradient>
<linearGradient id="paint1_linear_34_1832" x1="18.1764" y1="267.707" x2="368" y2="267.707" gradientUnits="userSpaceOnUse">
<stop stop-color="#680096"/>
<stop offset="1" stop-color="#A639FB"/>
</linearGradient>
</defs>
</svg>
