<svg width="1241" height="348" viewBox="0 0 1241 348" fill="none" xmlns="http://www.w3.org/2000/svg">
<path d="M282.903 246L52.9028 302H1181.9V64L955.903 1.5H734.403L503.903 56.5L282.903 246Z" fill="url(#paint0_linear_1_5461)"/>
<path d="M52.9028 302L282.903 246L503.903 56.5L734.403 1.5H955.903L1181.9 64" stroke="url(#paint1_linear_1_5461)" stroke-width="2"/>
<path d="M52.9028 13V303H1240.9" stroke="white"/>
<path d="M52.9028 82L1180.9 82" stroke="white" stroke-opacity="0.38" stroke-dasharray="8 8"/>
<path d="M52.9028 226.75H1180.9" stroke="white" stroke-opacity="0.38" stroke-dasharray="8 8"/>
<path d="M278.403 13.5V304" stroke="white" stroke-opacity="0.38" stroke-dasharray="8 8"/>
<path d="M503.903 13V303.5" stroke="white" stroke-opacity="0.38" stroke-dasharray="8 8"/>
<path d="M725.903 13V303.5" stroke="white" stroke-opacity="0.38" stroke-dasharray="8 8"/>
<path d="M954.903 13V303.5" stroke="white" stroke-opacity="0.38" stroke-dasharray="8 8"/>
<path d="M1180.9 13V303.5" stroke="white" stroke-opacity="0.38" stroke-dasharray="8 8"/>
<path d="M9.10596 74.6641H9.45752V76.7441H9.2915C8.50374 76.7441 7.81038 76.8646 7.21143 77.1055C6.61898 77.3464 6.12419 77.6849 5.72705 78.1211C5.33643 78.5508 5.0402 79.0618 4.83838 79.6543C4.63656 80.2402 4.53564 80.8815 4.53564 81.5781V83.8828C4.53564 84.4232 4.59098 84.8984 4.70166 85.3086C4.81885 85.7122 4.97835 86.054 5.18018 86.334C5.38851 86.6074 5.62939 86.8125 5.90283 86.9492C6.18278 87.0859 6.48877 87.1543 6.8208 87.1543C7.15283 87.1543 7.45231 87.0859 7.71924 86.9492C7.98617 86.8125 8.21403 86.6204 8.40283 86.373C8.59814 86.1191 8.74463 85.8229 8.84229 85.4844C8.94645 85.1458 8.99854 84.7747 8.99854 84.3711C8.99854 83.974 8.94971 83.6061 8.85205 83.2676C8.75439 82.929 8.61117 82.6328 8.42236 82.3789C8.23356 82.1185 7.99919 81.9199 7.71924 81.7832C7.4458 81.64 7.1333 81.5684 6.78174 81.5684C6.32601 81.5684 5.91911 81.6758 5.56104 81.8906C5.20296 82.099 4.91976 82.3724 4.71143 82.7109C4.50309 83.0495 4.38916 83.4076 4.36963 83.7852L3.50049 83.3555C3.53304 82.8021 3.65023 82.2943 3.85205 81.832C4.06038 81.3698 4.33708 80.9661 4.68213 80.6211C5.03369 80.276 5.4471 80.0091 5.92236 79.8203C6.40413 79.6315 6.93799 79.5371 7.52393 79.5371C8.20101 79.5371 8.79346 79.6673 9.30127 79.9277C9.80908 80.1816 10.229 80.5299 10.561 80.9727C10.8996 81.4154 11.1535 81.9264 11.3228 82.5059C11.492 83.0788 11.5767 83.6842 11.5767 84.3223C11.5767 85.0059 11.466 85.6439 11.2446 86.2363C11.0298 86.8288 10.7173 87.3464 10.3071 87.7891C9.89697 88.2318 9.40218 88.5768 8.82275 88.8242C8.24333 89.0716 7.59229 89.1953 6.86963 89.1953C6.10791 89.1953 5.42432 89.0521 4.81885 88.7656C4.21989 88.4792 3.70557 88.082 3.27588 87.5742C2.84619 87.0664 2.51742 86.474 2.28955 85.7969C2.06169 85.1198 1.94775 84.3874 1.94775 83.5996V82.5645C1.94775 81.4512 2.10075 80.416 2.40674 79.459C2.71273 78.502 3.1652 77.6654 3.76416 76.9492C4.36963 76.2266 5.11833 75.6667 6.01025 75.2695C6.90218 74.8659 7.93408 74.6641 9.10596 74.6641ZM22.7681 80.6699V83.0625C22.7681 84.1562 22.6574 85.0905 22.436 85.8652C22.2147 86.64 21.8957 87.2747 21.479 87.7695C21.0623 88.2578 20.5643 88.6191 19.9849 88.8535C19.4054 89.0814 18.7609 89.1953 18.0513 89.1953C17.4849 89.1953 16.9575 89.1237 16.4692 88.9805C15.981 88.8307 15.5415 88.6029 15.1509 88.2969C14.7668 87.9844 14.4347 87.5872 14.1548 87.1055C13.8813 86.6237 13.6698 86.0475 13.52 85.377C13.3768 84.7064 13.3052 83.9349 13.3052 83.0625V80.6699C13.3052 79.5762 13.4159 78.6452 13.6372 77.877C13.8651 77.1087 14.1873 76.4805 14.604 75.9922C15.0207 75.5039 15.5187 75.1491 16.0981 74.9277C16.6776 74.6999 17.3221 74.5859 18.0317 74.5859C18.6047 74.5859 19.132 74.6576 19.6138 74.8008C20.1021 74.944 20.5382 75.1686 20.9224 75.4746C21.313 75.7741 21.645 76.1647 21.9185 76.6465C22.1919 77.1217 22.4002 77.6947 22.5435 78.3652C22.6932 79.0293 22.7681 79.7975 22.7681 80.6699ZM20.1899 83.4141V80.3086C20.1899 79.7617 20.1574 79.2865 20.0923 78.8828C20.0337 78.4727 19.9458 78.1243 19.8286 77.8379C19.7114 77.5514 19.5649 77.3203 19.3892 77.1445C19.2134 76.9622 19.0116 76.8288 18.7837 76.7441C18.5558 76.6595 18.3052 76.6172 18.0317 76.6172C17.6932 76.6172 17.3905 76.6855 17.1235 76.8223C16.8566 76.9525 16.632 77.1608 16.4497 77.4473C16.2674 77.7337 16.1274 78.1146 16.0298 78.5898C15.9386 79.0586 15.8931 79.6315 15.8931 80.3086V83.4141C15.8931 83.9609 15.9224 84.4395 15.981 84.8496C16.0461 85.2598 16.1372 85.6113 16.2544 85.9043C16.3781 86.1973 16.5246 86.4382 16.6938 86.627C16.8696 86.8092 17.0715 86.946 17.2993 87.0371C17.5272 87.1217 17.7778 87.1641 18.0513 87.1641C18.3963 87.1641 18.6991 87.0957 18.9595 86.959C19.2264 86.8223 19.451 86.6074 19.6333 86.3145C19.8156 86.015 19.9523 85.6276 20.0435 85.1523C20.1411 84.6706 20.1899 84.0911 20.1899 83.4141Z" fill="#D1D3DC"/>
<path d="M4.48682 227.457L2.42627 226.959L3.21729 219.781H11.0396V221.92H5.35596L4.98486 225.24C5.18669 225.117 5.47965 224.993 5.86377 224.869C6.25439 224.739 6.69385 224.674 7.18213 224.674C7.85921 224.674 8.46468 224.785 8.99854 225.006C9.53239 225.221 9.98486 225.533 10.356 225.943C10.7336 226.354 11.0168 226.855 11.2056 227.447C11.4009 228.033 11.4985 228.697 11.4985 229.439C11.4985 230.09 11.4009 230.702 11.2056 231.275C11.0168 231.842 10.7271 232.346 10.3364 232.789C9.9458 233.225 9.45426 233.57 8.86182 233.824C8.26937 234.072 7.57275 234.195 6.77197 234.195C6.1665 234.195 5.58382 234.107 5.02393 233.932C4.47054 233.749 3.97249 233.486 3.52979 233.141C3.08708 232.789 2.73226 232.359 2.46533 231.852C2.20492 231.344 2.06169 230.761 2.03564 230.104H4.58447C4.63005 230.54 4.74723 230.911 4.93604 231.217C5.12484 231.523 5.37223 231.757 5.67822 231.92C5.99072 232.083 6.35205 232.164 6.76221 232.164C7.1333 232.164 7.45231 232.096 7.71924 231.959C7.99268 231.816 8.21729 231.617 8.39307 231.363C8.56885 231.109 8.69906 230.81 8.78369 230.465C8.86833 230.12 8.91064 229.742 8.91064 229.332C8.91064 228.935 8.86182 228.574 8.76416 228.248C8.6665 227.916 8.51676 227.63 8.31494 227.389C8.11312 227.148 7.85921 226.962 7.55322 226.832C7.25374 226.702 6.90218 226.637 6.49854 226.637C5.95817 226.637 5.5415 226.718 5.24854 226.881C4.96208 227.044 4.70817 227.236 4.48682 227.457ZM22.7681 225.67V228.062C22.7681 229.156 22.6574 230.09 22.436 230.865C22.2147 231.64 21.8957 232.275 21.479 232.77C21.0623 233.258 20.5643 233.619 19.9849 233.854C19.4054 234.081 18.7609 234.195 18.0513 234.195C17.4849 234.195 16.9575 234.124 16.4692 233.98C15.981 233.831 15.5415 233.603 15.1509 233.297C14.7668 232.984 14.4347 232.587 14.1548 232.105C13.8813 231.624 13.6698 231.048 13.52 230.377C13.3768 229.706 13.3052 228.935 13.3052 228.062V225.67C13.3052 224.576 13.4159 223.645 13.6372 222.877C13.8651 222.109 14.1873 221.48 14.604 220.992C15.0207 220.504 15.5187 220.149 16.0981 219.928C16.6776 219.7 17.3221 219.586 18.0317 219.586C18.6047 219.586 19.132 219.658 19.6138 219.801C20.1021 219.944 20.5382 220.169 20.9224 220.475C21.313 220.774 21.645 221.165 21.9185 221.646C22.1919 222.122 22.4002 222.695 22.5435 223.365C22.6932 224.029 22.7681 224.798 22.7681 225.67ZM20.1899 228.414V225.309C20.1899 224.762 20.1574 224.286 20.0923 223.883C20.0337 223.473 19.9458 223.124 19.8286 222.838C19.7114 222.551 19.5649 222.32 19.3892 222.145C19.2134 221.962 19.0116 221.829 18.7837 221.744C18.5558 221.66 18.3052 221.617 18.0317 221.617C17.6932 221.617 17.3905 221.686 17.1235 221.822C16.8566 221.952 16.632 222.161 16.4497 222.447C16.2674 222.734 16.1274 223.115 16.0298 223.59C15.9386 224.059 15.8931 224.632 15.8931 225.309V228.414C15.8931 228.961 15.9224 229.439 15.981 229.85C16.0461 230.26 16.1372 230.611 16.2544 230.904C16.3781 231.197 16.5246 231.438 16.6938 231.627C16.8696 231.809 17.0715 231.946 17.2993 232.037C17.5272 232.122 17.7778 232.164 18.0513 232.164C18.3963 232.164 18.6991 232.096 18.9595 231.959C19.2264 231.822 19.451 231.607 19.6333 231.314C19.8156 231.015 19.9523 230.628 20.0435 230.152C20.1411 229.671 20.1899 229.091 20.1899 228.414Z" fill="#D1D3DC"/>
<path d="M42.5571 338.969V341H32.9282V339.262L37.5474 334.271C38.0291 333.725 38.41 333.249 38.6899 332.846C38.9699 332.442 39.1685 332.077 39.2856 331.752C39.4093 331.42 39.4712 331.104 39.4712 330.805C39.4712 330.368 39.3931 329.988 39.2368 329.662C39.0806 329.33 38.8527 329.073 38.5532 328.891C38.2603 328.708 37.8989 328.617 37.4692 328.617C36.994 328.617 36.5871 328.728 36.2485 328.949C35.9165 329.164 35.6626 329.464 35.4868 329.848C35.3175 330.232 35.2329 330.671 35.2329 331.166H32.645C32.645 330.326 32.8403 329.561 33.231 328.871C33.6216 328.174 34.1815 327.618 34.9106 327.201C35.6398 326.785 36.5057 326.576 37.5083 326.576C38.4849 326.576 39.3117 326.739 39.9888 327.064C40.6659 327.383 41.1802 327.839 41.5317 328.432C41.8833 329.024 42.0591 329.73 42.0591 330.551C42.0591 331.007 41.9842 331.456 41.8345 331.898C41.6847 332.341 41.4731 332.781 41.1997 333.217C40.9328 333.646 40.6138 334.083 40.2427 334.525C39.8716 334.968 39.4582 335.421 39.0024 335.883L36.229 338.969H42.5571ZM53.7681 332.67V335.062C53.7681 336.156 53.6574 337.09 53.436 337.865C53.2147 338.64 52.8957 339.275 52.479 339.77C52.0623 340.258 51.5643 340.619 50.9849 340.854C50.4054 341.081 49.7609 341.195 49.0513 341.195C48.4849 341.195 47.9575 341.124 47.4692 340.98C46.981 340.831 46.5415 340.603 46.1509 340.297C45.7668 339.984 45.4347 339.587 45.1548 339.105C44.8813 338.624 44.6698 338.048 44.52 337.377C44.3768 336.706 44.3052 335.935 44.3052 335.062V332.67C44.3052 331.576 44.4159 330.645 44.6372 329.877C44.8651 329.109 45.1873 328.48 45.604 327.992C46.0207 327.504 46.5187 327.149 47.0981 326.928C47.6776 326.7 48.3221 326.586 49.0317 326.586C49.6047 326.586 50.132 326.658 50.6138 326.801C51.1021 326.944 51.5382 327.169 51.9224 327.475C52.313 327.774 52.645 328.165 52.9185 328.646C53.1919 329.122 53.4002 329.695 53.5435 330.365C53.6932 331.029 53.7681 331.798 53.7681 332.67ZM51.1899 335.414V332.309C51.1899 331.762 51.1574 331.286 51.0923 330.883C51.0337 330.473 50.9458 330.124 50.8286 329.838C50.7114 329.551 50.5649 329.32 50.3892 329.145C50.2134 328.962 50.0116 328.829 49.7837 328.744C49.5558 328.66 49.3052 328.617 49.0317 328.617C48.6932 328.617 48.3905 328.686 48.1235 328.822C47.8566 328.952 47.632 329.161 47.4497 329.447C47.2674 329.734 47.1274 330.115 47.0298 330.59C46.9386 331.059 46.8931 331.632 46.8931 332.309V335.414C46.8931 335.961 46.9224 336.439 46.981 336.85C47.0461 337.26 47.1372 337.611 47.2544 337.904C47.3781 338.197 47.5246 338.438 47.6938 338.627C47.8696 338.809 48.0715 338.946 48.2993 339.037C48.5272 339.122 48.7778 339.164 49.0513 339.164C49.3963 339.164 49.6991 339.096 49.9595 338.959C50.2264 338.822 50.451 338.607 50.6333 338.314C50.8156 338.015 50.9523 337.628 51.0435 337.152C51.1411 336.671 51.1899 336.091 51.1899 335.414ZM62.4204 326.742V341H59.8325V329.76L56.4048 330.893V328.803L62.1274 326.742H62.4204ZM74.3833 326.664H74.7349V328.744H74.5688C73.7811 328.744 73.0877 328.865 72.4888 329.105C71.8963 329.346 71.4015 329.685 71.0044 330.121C70.6138 330.551 70.3175 331.062 70.1157 331.654C69.9139 332.24 69.813 332.882 69.813 333.578V335.883C69.813 336.423 69.8683 336.898 69.979 337.309C70.0962 337.712 70.2557 338.054 70.4575 338.334C70.6659 338.607 70.9067 338.812 71.1802 338.949C71.4601 339.086 71.7661 339.154 72.0981 339.154C72.4302 339.154 72.7297 339.086 72.9966 338.949C73.2635 338.812 73.4914 338.62 73.6802 338.373C73.8755 338.119 74.022 337.823 74.1196 337.484C74.2238 337.146 74.2759 336.775 74.2759 336.371C74.2759 335.974 74.2271 335.606 74.1294 335.268C74.0317 334.929 73.8885 334.633 73.6997 334.379C73.5109 334.118 73.2765 333.92 72.9966 333.783C72.7231 333.64 72.4106 333.568 72.0591 333.568C71.6034 333.568 71.1965 333.676 70.8384 333.891C70.4803 334.099 70.1971 334.372 69.9888 334.711C69.7804 335.049 69.6665 335.408 69.647 335.785L68.7778 335.355C68.8104 334.802 68.9276 334.294 69.1294 333.832C69.3377 333.37 69.6144 332.966 69.9595 332.621C70.311 332.276 70.7244 332.009 71.1997 331.82C71.6815 331.632 72.2153 331.537 72.8013 331.537C73.4784 331.537 74.0708 331.667 74.5786 331.928C75.0864 332.182 75.5063 332.53 75.8384 332.973C76.1769 333.415 76.4308 333.926 76.6001 334.506C76.7694 335.079 76.854 335.684 76.854 336.322C76.854 337.006 76.7433 337.644 76.522 338.236C76.3071 338.829 75.9946 339.346 75.5845 339.789C75.1743 340.232 74.6795 340.577 74.1001 340.824C73.5207 341.072 72.8696 341.195 72.147 341.195C71.3853 341.195 70.7017 341.052 70.0962 340.766C69.4972 340.479 68.9829 340.082 68.5532 339.574C68.1235 339.066 67.7948 338.474 67.5669 337.797C67.339 337.12 67.2251 336.387 67.2251 335.6V334.564C67.2251 333.451 67.3781 332.416 67.6841 331.459C67.9901 330.502 68.4425 329.665 69.0415 328.949C69.647 328.227 70.3957 327.667 71.2876 327.27C72.1795 326.866 73.2114 326.664 74.3833 326.664Z" fill="#D1D3DC"/>
<path d="M265.557 338.969V341H255.928V339.262L260.547 334.271C261.029 333.725 261.41 333.249 261.69 332.846C261.97 332.442 262.168 332.077 262.286 331.752C262.409 331.42 262.471 331.104 262.471 330.805C262.471 330.368 262.393 329.988 262.237 329.662C262.081 329.33 261.853 329.073 261.553 328.891C261.26 328.708 260.899 328.617 260.469 328.617C259.994 328.617 259.587 328.728 259.249 328.949C258.917 329.164 258.663 329.464 258.487 329.848C258.318 330.232 258.233 330.671 258.233 331.166H255.645C255.645 330.326 255.84 329.561 256.231 328.871C256.622 328.174 257.181 327.618 257.911 327.201C258.64 326.785 259.506 326.576 260.508 326.576C261.485 326.576 262.312 326.739 262.989 327.064C263.666 327.383 264.18 327.839 264.532 328.432C264.883 329.024 265.059 329.73 265.059 330.551C265.059 331.007 264.984 331.456 264.834 331.898C264.685 332.341 264.473 332.781 264.2 333.217C263.933 333.646 263.614 334.083 263.243 334.525C262.872 334.968 262.458 335.421 262.002 335.883L259.229 338.969H265.557ZM276.768 332.67V335.062C276.768 336.156 276.657 337.09 276.436 337.865C276.215 338.64 275.896 339.275 275.479 339.77C275.062 340.258 274.564 340.619 273.985 340.854C273.405 341.081 272.761 341.195 272.051 341.195C271.485 341.195 270.958 341.124 270.469 340.98C269.981 340.831 269.542 340.603 269.151 340.297C268.767 339.984 268.435 339.587 268.155 339.105C267.881 338.624 267.67 338.048 267.52 337.377C267.377 336.706 267.305 335.935 267.305 335.062V332.67C267.305 331.576 267.416 330.645 267.637 329.877C267.865 329.109 268.187 328.48 268.604 327.992C269.021 327.504 269.519 327.149 270.098 326.928C270.678 326.7 271.322 326.586 272.032 326.586C272.605 326.586 273.132 326.658 273.614 326.801C274.102 326.944 274.538 327.169 274.922 327.475C275.313 327.774 275.645 328.165 275.918 328.646C276.192 329.122 276.4 329.695 276.543 330.365C276.693 331.029 276.768 331.798 276.768 332.67ZM274.19 335.414V332.309C274.19 331.762 274.157 331.286 274.092 330.883C274.034 330.473 273.946 330.124 273.829 329.838C273.711 329.551 273.565 329.32 273.389 329.145C273.213 328.962 273.012 328.829 272.784 328.744C272.556 328.66 272.305 328.617 272.032 328.617C271.693 328.617 271.39 328.686 271.124 328.822C270.857 328.952 270.632 329.161 270.45 329.447C270.267 329.734 270.127 330.115 270.03 330.59C269.939 331.059 269.893 331.632 269.893 332.309V335.414C269.893 335.961 269.922 336.439 269.981 336.85C270.046 337.26 270.137 337.611 270.254 337.904C270.378 338.197 270.525 338.438 270.694 338.627C270.87 338.809 271.071 338.946 271.299 339.037C271.527 339.122 271.778 339.164 272.051 339.164C272.396 339.164 272.699 339.096 272.959 338.959C273.226 338.822 273.451 338.607 273.633 338.314C273.816 338.015 273.952 337.628 274.043 337.152C274.141 336.671 274.19 336.091 274.19 335.414ZM285.42 326.742V341H282.833V329.76L279.405 330.893V328.803L285.127 326.742H285.42ZM299.756 326.781V328.188L294.17 341H291.446L297.032 328.812H289.805V326.781H299.756Z" fill="#D1D3DC"/>
<path d="M491.557 338.969V341H481.928V339.262L486.547 334.271C487.029 333.725 487.41 333.249 487.69 332.846C487.97 332.442 488.168 332.077 488.286 331.752C488.409 331.42 488.471 331.104 488.471 330.805C488.471 330.368 488.393 329.988 488.237 329.662C488.081 329.33 487.853 329.073 487.553 328.891C487.26 328.708 486.899 328.617 486.469 328.617C485.994 328.617 485.587 328.728 485.249 328.949C484.917 329.164 484.663 329.464 484.487 329.848C484.318 330.232 484.233 330.671 484.233 331.166H481.645C481.645 330.326 481.84 329.561 482.231 328.871C482.622 328.174 483.181 327.618 483.911 327.201C484.64 326.785 485.506 326.576 486.508 326.576C487.485 326.576 488.312 326.739 488.989 327.064C489.666 327.383 490.18 327.839 490.532 328.432C490.883 329.024 491.059 329.73 491.059 330.551C491.059 331.007 490.984 331.456 490.834 331.898C490.685 332.341 490.473 332.781 490.2 333.217C489.933 333.646 489.614 334.083 489.243 334.525C488.872 334.968 488.458 335.421 488.002 335.883L485.229 338.969H491.557ZM502.768 332.67V335.062C502.768 336.156 502.657 337.09 502.436 337.865C502.215 338.64 501.896 339.275 501.479 339.77C501.062 340.258 500.564 340.619 499.985 340.854C499.405 341.081 498.761 341.195 498.051 341.195C497.485 341.195 496.958 341.124 496.469 340.98C495.981 340.831 495.542 340.603 495.151 340.297C494.767 339.984 494.435 339.587 494.155 339.105C493.881 338.624 493.67 338.048 493.52 337.377C493.377 336.706 493.305 335.935 493.305 335.062V332.67C493.305 331.576 493.416 330.645 493.637 329.877C493.865 329.109 494.187 328.48 494.604 327.992C495.021 327.504 495.519 327.149 496.098 326.928C496.678 326.7 497.322 326.586 498.032 326.586C498.605 326.586 499.132 326.658 499.614 326.801C500.102 326.944 500.538 327.169 500.922 327.475C501.313 327.774 501.645 328.165 501.918 328.646C502.192 329.122 502.4 329.695 502.543 330.365C502.693 331.029 502.768 331.798 502.768 332.67ZM500.19 335.414V332.309C500.19 331.762 500.157 331.286 500.092 330.883C500.034 330.473 499.946 330.124 499.829 329.838C499.711 329.551 499.565 329.32 499.389 329.145C499.213 328.962 499.012 328.829 498.784 328.744C498.556 328.66 498.305 328.617 498.032 328.617C497.693 328.617 497.39 328.686 497.124 328.822C496.857 328.952 496.632 329.161 496.45 329.447C496.267 329.734 496.127 330.115 496.03 330.59C495.939 331.059 495.893 331.632 495.893 332.309V335.414C495.893 335.961 495.922 336.439 495.981 336.85C496.046 337.26 496.137 337.611 496.254 337.904C496.378 338.197 496.525 338.438 496.694 338.627C496.87 338.809 497.071 338.946 497.299 339.037C497.527 339.122 497.778 339.164 498.051 339.164C498.396 339.164 498.699 339.096 498.959 338.959C499.226 338.822 499.451 338.607 499.633 338.314C499.816 338.015 499.952 337.628 500.043 337.152C500.141 336.671 500.19 336.091 500.19 335.414ZM511.42 326.742V341H508.833V329.76L505.405 330.893V328.803L511.127 326.742H511.42ZM525.639 337.113C525.639 337.999 525.431 338.747 525.014 339.359C524.604 339.965 524.041 340.424 523.325 340.736C522.615 341.042 521.808 341.195 520.903 341.195C520.004 341.195 519.194 341.042 518.471 340.736C517.755 340.424 517.185 339.965 516.762 339.359C516.346 338.747 516.137 337.999 516.137 337.113C516.137 336.521 516.254 335.984 516.489 335.502C516.73 335.02 517.062 334.607 517.485 334.262C517.908 333.91 518.409 333.643 518.989 333.461C519.568 333.272 520.2 333.178 520.883 333.178C521.795 333.178 522.609 333.344 523.325 333.676C524.047 334.001 524.614 334.46 525.024 335.053C525.434 335.639 525.639 336.326 525.639 337.113ZM523.042 336.957C523.042 336.501 522.95 336.107 522.768 335.775C522.592 335.437 522.342 335.176 522.016 334.994C521.691 334.812 521.313 334.721 520.883 334.721C520.447 334.721 520.066 334.812 519.741 334.994C519.422 335.176 519.171 335.437 518.989 335.775C518.813 336.107 518.725 336.501 518.725 336.957C518.725 337.419 518.813 337.816 518.989 338.148C519.171 338.474 519.425 338.725 519.75 338.9C520.076 339.076 520.46 339.164 520.903 339.164C521.346 339.164 521.726 339.076 522.045 338.9C522.364 338.725 522.609 338.474 522.778 338.148C522.954 337.816 523.042 337.419 523.042 336.957ZM525.327 330.531C525.327 331.247 525.138 331.885 524.76 332.445C524.383 332.999 523.859 333.432 523.188 333.744C522.524 334.057 521.762 334.213 520.903 334.213C520.043 334.213 519.275 334.057 518.598 333.744C517.928 333.432 517.4 332.999 517.016 332.445C516.639 331.885 516.45 331.247 516.45 330.531C516.45 329.685 516.642 328.969 517.026 328.383C517.41 327.79 517.934 327.341 518.598 327.035C519.269 326.729 520.03 326.576 520.883 326.576C521.749 326.576 522.517 326.729 523.188 327.035C523.859 327.341 524.383 327.79 524.76 328.383C525.138 328.969 525.327 329.685 525.327 330.531ZM522.749 330.639C522.749 330.235 522.674 329.883 522.524 329.584C522.374 329.278 522.159 329.04 521.879 328.871C521.606 328.702 521.274 328.617 520.883 328.617C520.506 328.617 520.18 328.699 519.907 328.861C519.633 329.024 519.422 329.258 519.272 329.564C519.122 329.864 519.047 330.222 519.047 330.639C519.047 331.049 519.122 331.407 519.272 331.713C519.422 332.019 519.633 332.26 519.907 332.436C520.187 332.605 520.519 332.689 520.903 332.689C521.287 332.689 521.616 332.605 521.889 332.436C522.163 332.26 522.374 332.019 522.524 331.713C522.674 331.407 522.749 331.049 522.749 330.639Z" fill="#D1D3DC"/>
<path d="M713.557 338.969V341H703.928V339.262L708.547 334.271C709.029 333.725 709.41 333.249 709.69 332.846C709.97 332.442 710.168 332.077 710.286 331.752C710.409 331.42 710.471 331.104 710.471 330.805C710.471 330.368 710.393 329.988 710.237 329.662C710.081 329.33 709.853 329.073 709.553 328.891C709.26 328.708 708.899 328.617 708.469 328.617C707.994 328.617 707.587 328.728 707.249 328.949C706.917 329.164 706.663 329.464 706.487 329.848C706.318 330.232 706.233 330.671 706.233 331.166H703.645C703.645 330.326 703.84 329.561 704.231 328.871C704.622 328.174 705.181 327.618 705.911 327.201C706.64 326.785 707.506 326.576 708.508 326.576C709.485 326.576 710.312 326.739 710.989 327.064C711.666 327.383 712.18 327.839 712.532 328.432C712.883 329.024 713.059 329.73 713.059 330.551C713.059 331.007 712.984 331.456 712.834 331.898C712.685 332.341 712.473 332.781 712.2 333.217C711.933 333.646 711.614 334.083 711.243 334.525C710.872 334.968 710.458 335.421 710.002 335.883L707.229 338.969H713.557ZM724.768 332.67V335.062C724.768 336.156 724.657 337.09 724.436 337.865C724.215 338.64 723.896 339.275 723.479 339.77C723.062 340.258 722.564 340.619 721.985 340.854C721.405 341.081 720.761 341.195 720.051 341.195C719.485 341.195 718.958 341.124 718.469 340.98C717.981 340.831 717.542 340.603 717.151 340.297C716.767 339.984 716.435 339.587 716.155 339.105C715.881 338.624 715.67 338.048 715.52 337.377C715.377 336.706 715.305 335.935 715.305 335.062V332.67C715.305 331.576 715.416 330.645 715.637 329.877C715.865 329.109 716.187 328.48 716.604 327.992C717.021 327.504 717.519 327.149 718.098 326.928C718.678 326.7 719.322 326.586 720.032 326.586C720.605 326.586 721.132 326.658 721.614 326.801C722.102 326.944 722.538 327.169 722.922 327.475C723.313 327.774 723.645 328.165 723.918 328.646C724.192 329.122 724.4 329.695 724.543 330.365C724.693 331.029 724.768 331.798 724.768 332.67ZM722.19 335.414V332.309C722.19 331.762 722.157 331.286 722.092 330.883C722.034 330.473 721.946 330.124 721.829 329.838C721.711 329.551 721.565 329.32 721.389 329.145C721.213 328.962 721.012 328.829 720.784 328.744C720.556 328.66 720.305 328.617 720.032 328.617C719.693 328.617 719.39 328.686 719.124 328.822C718.857 328.952 718.632 329.161 718.45 329.447C718.267 329.734 718.127 330.115 718.03 330.59C717.939 331.059 717.893 331.632 717.893 332.309V335.414C717.893 335.961 717.922 336.439 717.981 336.85C718.046 337.26 718.137 337.611 718.254 337.904C718.378 338.197 718.525 338.438 718.694 338.627C718.87 338.809 719.071 338.946 719.299 339.037C719.527 339.122 719.778 339.164 720.051 339.164C720.396 339.164 720.699 339.096 720.959 338.959C721.226 338.822 721.451 338.607 721.633 338.314C721.816 338.015 721.952 337.628 722.043 337.152C722.141 336.671 722.19 336.091 722.19 335.414ZM733.42 326.742V341H730.833V329.76L727.405 330.893V328.803L733.127 326.742H733.42ZM740.149 338.998H740.334C741.174 338.998 741.884 338.891 742.463 338.676C743.049 338.461 743.521 338.158 743.879 337.768C744.244 337.37 744.508 336.898 744.67 336.352C744.84 335.798 744.924 335.186 744.924 334.516V331.938C744.924 331.391 744.869 330.912 744.758 330.502C744.648 330.085 744.491 329.737 744.29 329.457C744.094 329.177 743.863 328.969 743.596 328.832C743.329 328.689 743.043 328.617 742.737 328.617C742.398 328.617 742.099 328.695 741.838 328.852C741.578 329.008 741.357 329.223 741.174 329.496C740.999 329.763 740.862 330.072 740.764 330.424C740.673 330.775 740.627 331.146 740.627 331.537C740.627 331.915 740.67 332.276 740.754 332.621C740.846 332.966 740.979 333.272 741.155 333.539C741.337 333.806 741.565 334.018 741.838 334.174C742.112 334.324 742.431 334.398 742.795 334.398C743.14 334.398 743.453 334.333 743.733 334.203C744.019 334.066 744.267 333.887 744.475 333.666C744.683 333.438 744.843 333.188 744.954 332.914C745.071 332.634 745.136 332.351 745.149 332.064L746.057 332.455C746.057 332.93 745.956 333.399 745.754 333.861C745.559 334.324 745.282 334.743 744.924 335.121C744.573 335.492 744.163 335.792 743.694 336.02C743.225 336.241 742.721 336.352 742.18 336.352C741.51 336.352 740.917 336.228 740.403 335.98C739.889 335.733 739.456 335.391 739.104 334.955C738.759 334.512 738.499 334.005 738.323 333.432C738.147 332.852 738.059 332.234 738.059 331.576C738.059 330.893 738.167 330.251 738.381 329.652C738.596 329.047 738.905 328.516 739.309 328.061C739.719 327.598 740.214 327.237 740.793 326.977C741.373 326.71 742.024 326.576 742.747 326.576C743.495 326.576 744.163 326.723 744.749 327.016C745.334 327.309 745.833 327.715 746.243 328.236C746.653 328.751 746.965 329.359 747.18 330.062C747.402 330.766 747.512 331.534 747.512 332.367V333.275C747.512 334.154 747.424 334.988 747.249 335.775C747.073 336.563 746.803 337.283 746.438 337.934C746.073 338.585 745.608 339.148 745.042 339.623C744.482 340.098 743.811 340.466 743.03 340.727C742.255 340.98 741.37 341.107 740.374 341.107H740.149V338.998Z" fill="#D1D3DC"/>
<path d="M942.557 338.969V341H932.928V339.262L937.547 334.271C938.029 333.725 938.41 333.249 938.69 332.846C938.97 332.442 939.168 332.077 939.286 331.752C939.409 331.42 939.471 331.104 939.471 330.805C939.471 330.368 939.393 329.988 939.237 329.662C939.081 329.33 938.853 329.073 938.553 328.891C938.26 328.708 937.899 328.617 937.469 328.617C936.994 328.617 936.587 328.728 936.249 328.949C935.917 329.164 935.663 329.464 935.487 329.848C935.318 330.232 935.233 330.671 935.233 331.166H932.645C932.645 330.326 932.84 329.561 933.231 328.871C933.622 328.174 934.181 327.618 934.911 327.201C935.64 326.785 936.506 326.576 937.508 326.576C938.485 326.576 939.312 326.739 939.989 327.064C940.666 327.383 941.18 327.839 941.532 328.432C941.883 329.024 942.059 329.73 942.059 330.551C942.059 331.007 941.984 331.456 941.834 331.898C941.685 332.341 941.473 332.781 941.2 333.217C940.933 333.646 940.614 334.083 940.243 334.525C939.872 334.968 939.458 335.421 939.002 335.883L936.229 338.969H942.557ZM953.768 332.67V335.062C953.768 336.156 953.657 337.09 953.436 337.865C953.215 338.64 952.896 339.275 952.479 339.77C952.062 340.258 951.564 340.619 950.985 340.854C950.405 341.081 949.761 341.195 949.051 341.195C948.485 341.195 947.958 341.124 947.469 340.98C946.981 340.831 946.542 340.603 946.151 340.297C945.767 339.984 945.435 339.587 945.155 339.105C944.881 338.624 944.67 338.048 944.52 337.377C944.377 336.706 944.305 335.935 944.305 335.062V332.67C944.305 331.576 944.416 330.645 944.637 329.877C944.865 329.109 945.187 328.48 945.604 327.992C946.021 327.504 946.519 327.149 947.098 326.928C947.678 326.7 948.322 326.586 949.032 326.586C949.605 326.586 950.132 326.658 950.614 326.801C951.102 326.944 951.538 327.169 951.922 327.475C952.313 327.774 952.645 328.165 952.918 328.646C953.192 329.122 953.4 329.695 953.543 330.365C953.693 331.029 953.768 331.798 953.768 332.67ZM951.19 335.414V332.309C951.19 331.762 951.157 331.286 951.092 330.883C951.034 330.473 950.946 330.124 950.829 329.838C950.711 329.551 950.565 329.32 950.389 329.145C950.213 328.962 950.012 328.829 949.784 328.744C949.556 328.66 949.305 328.617 949.032 328.617C948.693 328.617 948.39 328.686 948.124 328.822C947.857 328.952 947.632 329.161 947.45 329.447C947.267 329.734 947.127 330.115 947.03 330.59C946.939 331.059 946.893 331.632 946.893 332.309V335.414C946.893 335.961 946.922 336.439 946.981 336.85C947.046 337.26 947.137 337.611 947.254 337.904C947.378 338.197 947.525 338.438 947.694 338.627C947.87 338.809 948.071 338.946 948.299 339.037C948.527 339.122 948.778 339.164 949.051 339.164C949.396 339.164 949.699 339.096 949.959 338.959C950.226 338.822 950.451 338.607 950.633 338.314C950.816 338.015 950.952 337.628 951.043 337.152C951.141 336.671 951.19 336.091 951.19 335.414ZM965.409 338.969V341H955.78V339.262L960.399 334.271C960.881 333.725 961.262 333.249 961.542 332.846C961.821 332.442 962.02 332.077 962.137 331.752C962.261 331.42 962.323 331.104 962.323 330.805C962.323 330.368 962.245 329.988 962.088 329.662C961.932 329.33 961.704 329.073 961.405 328.891C961.112 328.708 960.75 328.617 960.321 328.617C959.846 328.617 959.439 328.728 959.1 328.949C958.768 329.164 958.514 329.464 958.338 329.848C958.169 330.232 958.084 330.671 958.084 331.166H955.497C955.497 330.326 955.692 329.561 956.083 328.871C956.473 328.174 957.033 327.618 957.762 327.201C958.491 326.785 959.357 326.576 960.36 326.576C961.336 326.576 962.163 326.739 962.84 327.064C963.517 327.383 964.032 327.839 964.383 328.432C964.735 329.024 964.911 329.73 964.911 330.551C964.911 331.007 964.836 331.456 964.686 331.898C964.536 332.341 964.325 332.781 964.051 333.217C963.784 333.646 963.465 334.083 963.094 334.525C962.723 334.968 962.31 335.421 961.854 335.883L959.081 338.969H965.409ZM976.62 332.67V335.062C976.62 336.156 976.509 337.09 976.288 337.865C976.066 338.64 975.747 339.275 975.331 339.77C974.914 340.258 974.416 340.619 973.836 340.854C973.257 341.081 972.612 341.195 971.903 341.195C971.336 341.195 970.809 341.124 970.321 340.98C969.833 340.831 969.393 340.603 969.002 340.297C968.618 339.984 968.286 339.587 968.006 339.105C967.733 338.624 967.521 338.048 967.372 337.377C967.228 336.706 967.157 335.935 967.157 335.062V332.67C967.157 331.576 967.267 330.645 967.489 329.877C967.717 329.109 968.039 328.48 968.456 327.992C968.872 327.504 969.37 327.149 969.95 326.928C970.529 326.7 971.174 326.586 971.883 326.586C972.456 326.586 972.984 326.658 973.465 326.801C973.954 326.944 974.39 327.169 974.774 327.475C975.165 327.774 975.497 328.165 975.77 328.646C976.043 329.122 976.252 329.695 976.395 330.365C976.545 331.029 976.62 331.798 976.62 332.67ZM974.042 335.414V332.309C974.042 331.762 974.009 331.286 973.944 330.883C973.885 330.473 973.797 330.124 973.68 329.838C973.563 329.551 973.417 329.32 973.241 329.145C973.065 328.962 972.863 328.829 972.635 328.744C972.407 328.66 972.157 328.617 971.883 328.617C971.545 328.617 971.242 328.686 970.975 328.822C970.708 328.952 970.484 329.161 970.301 329.447C970.119 329.734 969.979 330.115 969.881 330.59C969.79 331.059 969.745 331.632 969.745 332.309V335.414C969.745 335.961 969.774 336.439 969.833 336.85C969.898 337.26 969.989 337.611 970.106 337.904C970.23 338.197 970.376 338.438 970.545 338.627C970.721 338.809 970.923 338.946 971.151 339.037C971.379 339.122 971.629 339.164 971.903 339.164C972.248 339.164 972.551 339.096 972.811 338.959C973.078 338.822 973.303 338.607 973.485 338.314C973.667 338.015 973.804 337.628 973.895 337.152C973.993 336.671 974.042 336.091 974.042 335.414Z" fill="#D1D3DC"/>
<path d="M1169.56 338.969V341H1159.93V339.262L1164.55 334.271C1165.03 333.725 1165.41 333.249 1165.69 332.846C1165.97 332.442 1166.17 332.077 1166.29 331.752C1166.41 331.42 1166.47 331.104 1166.47 330.805C1166.47 330.368 1166.39 329.988 1166.24 329.662C1166.08 329.33 1165.85 329.073 1165.55 328.891C1165.26 328.708 1164.9 328.617 1164.47 328.617C1163.99 328.617 1163.59 328.728 1163.25 328.949C1162.92 329.164 1162.66 329.464 1162.49 329.848C1162.32 330.232 1162.23 330.671 1162.23 331.166H1159.65C1159.65 330.326 1159.84 329.561 1160.23 328.871C1160.62 328.174 1161.18 327.618 1161.91 327.201C1162.64 326.785 1163.51 326.576 1164.51 326.576C1165.48 326.576 1166.31 326.739 1166.99 327.064C1167.67 327.383 1168.18 327.839 1168.53 328.432C1168.88 329.024 1169.06 329.73 1169.06 330.551C1169.06 331.007 1168.98 331.456 1168.83 331.898C1168.68 332.341 1168.47 332.781 1168.2 333.217C1167.93 333.646 1167.61 334.083 1167.24 334.525C1166.87 334.968 1166.46 335.421 1166 335.883L1163.23 338.969H1169.56ZM1180.77 332.67V335.062C1180.77 336.156 1180.66 337.09 1180.44 337.865C1180.21 338.64 1179.9 339.275 1179.48 339.77C1179.06 340.258 1178.56 340.619 1177.98 340.854C1177.41 341.081 1176.76 341.195 1176.05 341.195C1175.48 341.195 1174.96 341.124 1174.47 340.98C1173.98 340.831 1173.54 340.603 1173.15 340.297C1172.77 339.984 1172.43 339.587 1172.15 339.105C1171.88 338.624 1171.67 338.048 1171.52 337.377C1171.38 336.706 1171.31 335.935 1171.31 335.062V332.67C1171.31 331.576 1171.42 330.645 1171.64 329.877C1171.87 329.109 1172.19 328.48 1172.6 327.992C1173.02 327.504 1173.52 327.149 1174.1 326.928C1174.68 326.7 1175.32 326.586 1176.03 326.586C1176.6 326.586 1177.13 326.658 1177.61 326.801C1178.1 326.944 1178.54 327.169 1178.92 327.475C1179.31 327.774 1179.65 328.165 1179.92 328.646C1180.19 329.122 1180.4 329.695 1180.54 330.365C1180.69 331.029 1180.77 331.798 1180.77 332.67ZM1178.19 335.414V332.309C1178.19 331.762 1178.16 331.286 1178.09 330.883C1178.03 330.473 1177.95 330.124 1177.83 329.838C1177.71 329.551 1177.56 329.32 1177.39 329.145C1177.21 328.962 1177.01 328.829 1176.78 328.744C1176.56 328.66 1176.31 328.617 1176.03 328.617C1175.69 328.617 1175.39 328.686 1175.12 328.822C1174.86 328.952 1174.63 329.161 1174.45 329.447C1174.27 329.734 1174.13 330.115 1174.03 330.59C1173.94 331.059 1173.89 331.632 1173.89 332.309V335.414C1173.89 335.961 1173.92 336.439 1173.98 336.85C1174.05 337.26 1174.14 337.611 1174.25 337.904C1174.38 338.197 1174.52 338.438 1174.69 338.627C1174.87 338.809 1175.07 338.946 1175.3 339.037C1175.53 339.122 1175.78 339.164 1176.05 339.164C1176.4 339.164 1176.7 339.096 1176.96 338.959C1177.23 338.822 1177.45 338.607 1177.63 338.314C1177.82 338.015 1177.95 337.628 1178.04 337.152C1178.14 336.671 1178.19 336.091 1178.19 335.414ZM1192.41 338.969V341H1182.78V339.262L1187.4 334.271C1187.88 333.725 1188.26 333.249 1188.54 332.846C1188.82 332.442 1189.02 332.077 1189.14 331.752C1189.26 331.42 1189.32 331.104 1189.32 330.805C1189.32 330.368 1189.24 329.988 1189.09 329.662C1188.93 329.33 1188.7 329.073 1188.4 328.891C1188.11 328.708 1187.75 328.617 1187.32 328.617C1186.85 328.617 1186.44 328.728 1186.1 328.949C1185.77 329.164 1185.51 329.464 1185.34 329.848C1185.17 330.232 1185.08 330.671 1185.08 331.166H1182.5C1182.5 330.326 1182.69 329.561 1183.08 328.871C1183.47 328.174 1184.03 327.618 1184.76 327.201C1185.49 326.785 1186.36 326.576 1187.36 326.576C1188.34 326.576 1189.16 326.739 1189.84 327.064C1190.52 327.383 1191.03 327.839 1191.38 328.432C1191.73 329.024 1191.91 329.73 1191.91 330.551C1191.91 331.007 1191.84 331.456 1191.69 331.898C1191.54 332.341 1191.32 332.781 1191.05 333.217C1190.78 333.646 1190.47 334.083 1190.09 334.525C1189.72 334.968 1189.31 335.421 1188.85 335.883L1186.08 338.969H1192.41ZM1200.85 326.742V341H1198.26V329.76L1194.83 330.893V328.803L1200.55 326.742H1200.85Z" fill="#D1D3DC"/>
<defs>
<linearGradient id="paint0_linear_1_5461" x1="662.4" y1="-168.5" x2="662.403" y2="302" gradientUnits="userSpaceOnUse">
<stop stop-color="#680096"/>
<stop offset="1" stop-color="#A639FB" stop-opacity="0"/>
</linearGradient>
<linearGradient id="paint1_linear_1_5461" x1="28.99" y1="301.997" x2="1181.9" y2="301.997" gradientUnits="userSpaceOnUse">
<stop stop-color="#680096"/>
<stop offset="1" stop-color="#A639FB"/>
</linearGradient>
</defs>
</svg>
