<svg width="31" height="43" viewBox="0 0 31 43" fill="none" xmlns="http://www.w3.org/2000/svg">
<path d="M15.5 0.9375C7.39158 0.9375 0.8125 6.85932 0.8125 14.1562C0.8125 25.9062 15.5 42.0625 15.5 42.0625C15.5 42.0625 30.1875 25.9062 30.1875 14.1562C30.1875 6.85932 23.6084 0.9375 15.5 0.9375ZM15.5 21.5C14.338 21.5 13.2022 21.1554 12.236 20.5099C11.2699 19.8643 10.5169 18.9468 10.0722 17.8733C9.62754 16.7997 9.5112 15.6185 9.73789 14.4788C9.96457 13.3392 10.5241 12.2924 11.3457 11.4707C12.1674 10.6491 13.2142 10.0896 14.3538 9.86289C15.4935 9.6362 16.6747 9.75254 17.7483 10.1972C18.8218 10.6419 19.7393 11.3949 20.3849 12.361C21.0304 13.3272 21.375 14.463 21.375 15.625C21.3733 17.1826 20.7538 18.676 19.6524 19.7774C18.551 20.8788 17.0576 21.4983 15.5 21.5Z" fill="#F3BC74"/>
</svg>
