<svg width="31" height="24" viewBox="0 0 31 24" fill="none" xmlns="http://www.w3.org/2000/svg">
<g clip-path="url(#clip0_2_3030)">
<path d="M25.9121 2.30922C23.9004 1.38715 21.7781 0.735085 19.5992 0.36963C19.305 0.903479 19.0354 1.45084 18.7913 2.00996C16.47 1.66263 14.1109 1.66263 11.7896 2.00996C11.5506 1.4484 11.281 0.900623 10.9822 0.369141C8.80347 0.739418 6.68137 1.39351 4.66884 2.3151C1.10481 7.36196 -0.505253 13.5329 0.138965 19.6784C2.48005 21.4118 5.09684 22.7281 7.87637 23.5703C8.49953 22.725 9.05386 21.83 9.5339 20.894C8.62923 20.5585 7.75612 20.1417 6.92506 19.6485C7.14012 19.4869 7.35567 19.3252 7.55959 19.1636C9.98345 20.3025 12.624 20.8925 15.2968 20.8925C17.9695 20.8925 20.6101 20.3025 23.0339 19.1636C23.2432 19.337 23.4529 19.4986 23.6684 19.6485C22.8366 20.1405 21.9635 20.5573 21.0591 20.894C21.5336 21.8319 22.0861 22.7272 22.7108 23.5703C25.4919 22.7303 28.1107 21.416 30.4541 19.6842C31.0963 13.5334 29.4819 7.35804 25.9121 2.30922ZM10.2159 16.1758C8.94878 16.3095 7.73057 15.6483 7.15223 14.512C6.86986 13.9575 6.76226 13.3288 6.84392 12.7105C6.92559 12.0923 7.19259 11.5142 7.609 11.054C8.02867 10.5908 8.57638 10.2658 9.18102 10.1214C9.78566 9.9769 10.4193 10.0196 10.9996 10.2439C12.1883 10.7029 12.9715 11.8475 12.9686 13.1224C12.9444 14.8049 11.7538 16.1758 10.2159 16.1758ZM20.3887 16.1758C18.8276 16.0064 17.6448 14.6873 17.6448 13.1166C17.6448 11.5453 18.8276 10.2268 20.3887 10.0568C20.7706 10.0739 21.1453 10.1672 21.4913 10.3314C21.8373 10.4955 22.1477 10.7273 22.4047 11.0134C22.66 11.2976 22.8562 11.6307 22.9817 11.9929C23.1073 12.3552 23.1596 12.7393 23.1356 13.1224C23.0998 14.8049 21.915 16.1758 20.3771 16.1758H20.3887Z" fill="#D1D3DC"/>
</g>
<defs>
<clipPath id="clip0_2_3030">
<rect width="31" height="24" fill="white"/>
</clipPath>
</defs>
</svg>
