<svg width="26" height="21" viewBox="0 0 26 21" fill="none" xmlns="http://www.w3.org/2000/svg">
<g clip-path="url(#clip0_2_3038)">
<path d="M0.33123 18.6606C2.71304 20.1891 5.48274 21.0011 8.31155 21C17.9831 21 23.4436 12.8403 23.116 5.52009C24.1348 4.78465 25.0143 3.87295 25.7131 2.82789C24.7621 3.24844 23.7538 3.52448 22.7214 3.64689C23.8091 2.99674 24.6231 1.97204 25.0111 0.764427C23.9898 1.37123 22.8725 1.79878 21.7074 2.02863C20.9225 1.18696 19.8822 0.628249 18.7479 0.43916C17.6136 0.25007 16.4487 0.441174 15.4339 0.982827C14.4199 1.52292 13.613 2.38408 13.1391 3.43185C12.6653 4.47963 12.5512 5.65505 12.8146 6.77463C10.7455 6.67107 8.72125 6.13363 6.87269 5.19708C5.02413 4.26052 3.39247 2.94571 2.08329 1.33773C0.700262 3.71577 1.40646 6.75783 3.69613 8.28453C2.86848 8.25967 2.05878 8.03674 1.33475 7.63437C1.30455 10.1376 3.05955 12.3081 5.51446 12.8046C4.74769 13.0136 3.9432 13.0434 3.16313 12.8915C3.49562 13.9268 4.14318 14.8319 5.01506 15.4801C5.88695 16.1283 6.93947 16.487 8.02513 16.506C5.84545 18.2144 3.0791 18.9891 0.330811 18.6606H0.33123Z" fill="#D1D3DC"/>
</g>
<defs>
<clipPath id="clip0_2_3038">
<rect width="26" height="21" fill="white"/>
</clipPath>
</defs>
</svg>
