<svg width="90" height="126" viewBox="0 0 90 126" fill="none" xmlns="http://www.w3.org/2000/svg">
<path d="M44.6714 124.267C44.6328 124.223 44.5913 124.177 44.547 124.127C44.2234 123.762 43.7481 123.222 43.143 122.522C41.9326 121.121 40.2026 119.08 38.1262 116.519C33.9729 111.396 28.4359 104.198 22.8999 95.8943C17.363 87.5889 11.833 78.1861 7.68852 68.6539C3.54186 59.1166 0.796387 49.4815 0.796387 40.7029C0.796387 18.9812 20.3989 1.26538 44.6714 1.26538C68.9439 1.26538 88.5464 18.9812 88.5464 40.7029C88.5464 49.4815 85.8009 59.1166 81.6543 68.6539C77.5098 78.1861 71.9798 87.5889 66.4429 95.8943C60.9068 104.198 55.3699 111.396 51.2166 116.519C49.1402 119.08 47.4102 121.121 46.1998 122.522C45.5946 123.222 45.1194 123.762 44.7958 124.127C44.7515 124.177 44.71 124.223 44.6714 124.267Z" fill="url(#paint0_linear_2_3052)" stroke="#F3BC74"/>
<defs>
<linearGradient id="paint0_linear_2_3052" x1="44.5395" y1="-200.128" x2="45.1004" y2="125.015" gradientUnits="userSpaceOnUse">
<stop stop-color="#F3BC74"/>
<stop offset="1" stop-color="#F3BC74" stop-opacity="0"/>
</linearGradient>
</defs>
</svg>
