<svg width="35" height="35" viewBox="0 0 35 35" fill="none" xmlns="http://www.w3.org/2000/svg">
<path fill-rule="evenodd" clip-rule="evenodd" d="M21.7703 4.5674C21.639 4.624 21.0655 5.14006 20.4599 5.74668C19.6021 6.60594 19.3662 6.88161 19.3 7.10195C19.1907 7.46593 19.2607 7.80706 19.5005 8.0796L19.6935 8.29888L17.1312 10.8547C14.7301 13.2499 14.5613 13.404 14.4489 13.3056C14.2417 13.1243 13.9101 12.9848 13.6859 12.9848C13.2729 12.9848 12.9343 13.232 11.8747 14.3075C10.7542 15.4449 10.6279 15.6474 10.7212 16.158C10.7624 16.3826 11.0363 16.684 12.9518 18.6115C14.1528 19.8201 15.7037 21.3861 16.3982 22.0916C17.1828 22.8887 17.7646 23.4245 17.9347 23.5066C18.2659 23.6666 18.5677 23.675 18.8538 23.5324C19.1493 23.3851 21.0831 21.4642 21.2411 21.1611C21.4548 20.7512 21.3818 20.2693 21.0485 19.8903C20.9506 19.779 20.9741 19.7401 21.3899 19.3252L21.8364 18.8798L25.7576 22.7875C30.2094 27.2239 30.0201 27.0697 31.0137 27.0661C31.6463 27.0639 32.0549 26.898 32.4854 26.4688C32.9185 26.0369 33.0826 25.6344 33.0826 25.004C33.0826 24.0033 33.317 24.2903 28.8538 19.8263L24.8754 15.8473L25.4494 15.2747L26.0233 14.702L26.2982 14.8836C26.6708 15.1296 27.0763 15.1699 27.4147 14.9945C27.729 14.8315 29.6542 12.9078 29.8058 12.6052C29.9418 12.3334 29.942 11.9717 29.806 11.6996C29.659 11.4058 22.9975 4.74966 22.6907 4.59018C22.3963 4.43716 22.09 4.42957 21.7703 4.5674ZM22.4696 6.66527C21.9741 7.17733 21.914 7.40759 22.2011 7.69399C22.4882 7.98045 22.719 7.92052 23.2322 7.42617L23.6799 6.99481L24.0374 7.35605L24.395 7.7173L23.9837 8.15605C23.6489 8.51309 23.5723 8.63641 23.5723 8.81807C23.5723 9.14069 23.7658 9.34904 24.0656 9.34904C24.2758 9.34904 24.3687 9.29024 24.7422 8.92088L25.1752 8.49272L25.5551 8.87174L25.935 9.25076L25.4878 9.71295C24.9977 10.2194 24.9455 10.3825 25.1789 10.6785C25.2859 10.8143 25.3758 10.8539 25.5768 10.8539C25.803 10.8539 25.8934 10.8009 26.2763 10.4435L26.716 10.033L27.0799 10.3915L27.4437 10.7501L27.0097 11.1865C26.5099 11.689 26.4469 11.9303 26.7394 12.222C27.0116 12.4936 27.1999 12.4394 27.7182 11.9401L28.1806 11.4948L28.5134 11.8219L28.8463 12.1491L27.895 13.0999L26.9437 14.0508L23.6232 10.7383L20.3027 7.42571L21.2519 6.47689L22.2012 5.52807L22.5515 5.87333L22.9019 6.21853L22.4696 6.66527ZM21.9812 12.895C22.1465 13.0436 22.1863 13.2947 22.0773 13.5014C22.0243 13.6018 21.4736 14.1858 20.8535 14.7993C19.8625 15.7795 19.6998 15.9146 19.5104 15.9146C19.2218 15.9146 18.9673 15.6607 18.9673 15.3726C18.9673 15.1833 19.1054 15.0185 20.1185 13.9984C20.7518 13.3608 21.3299 12.8132 21.4033 12.7816C21.5682 12.7104 21.8339 12.7626 21.9812 12.895ZM19.3523 21.6233L18.4032 22.5721L18.0875 22.2618L17.7718 21.9516L18.1694 21.5276C18.4966 21.1787 18.5669 21.0629 18.5669 20.873C18.5669 20.6241 18.3823 20.3815 18.1831 20.3684C17.8922 20.3493 17.7741 20.4113 17.397 20.781L16.9946 21.1754L16.6128 20.7904L16.2309 20.4054L16.6314 20.0099C17.0966 19.5506 17.1567 19.296 16.868 19.008C16.6009 18.7415 16.4073 18.7925 15.9221 19.2572L15.4914 19.67L15.1117 19.2911L14.7321 18.9123L15.1478 18.4937C15.5052 18.134 15.5636 18.041 15.5636 17.8321C15.5636 17.6488 15.5204 17.5551 15.3878 17.451C15.0932 17.2198 14.927 17.2709 14.4363 17.7436L13.9893 18.1741L13.6109 17.7966L13.2326 17.4191L13.6306 17.0056C14.0815 16.537 14.1461 16.281 13.8835 16.0021C13.6202 15.7225 13.3453 15.7883 12.8684 16.2452L12.4539 16.6423L12.1067 16.2959L11.7596 15.9495L12.71 14.9996L13.6604 14.0496L16.981 17.3621L20.3015 20.6746L19.3523 21.6233ZM28.0901 20.5925C31.5151 24.0144 31.9777 24.5007 32.0177 24.721C32.0841 25.0871 32.0012 25.4096 31.7745 25.6672C31.5231 25.9528 31.2002 26.0637 30.7918 26.0044C30.4848 25.96 30.4173 25.897 26.5756 22.07L22.6714 18.1808L23.4044 17.4472C23.8075 17.0438 24.1532 16.7137 24.1726 16.7137C24.1919 16.7137 25.9549 18.4591 28.0901 20.5925ZM4.11791 24.265C3.87218 24.3747 3.64967 24.6093 3.5551 24.8585C3.51592 24.9615 3.48389 25.4451 3.48389 25.933V26.8201L3.01885 26.8463C2.52192 26.8744 2.31456 26.9775 2.05314 27.3269C1.92621 27.4966 1.91553 27.6028 1.91553 28.6996C1.91553 30.0035 1.93174 30.0633 2.37502 30.3935C2.55862 30.5302 2.58752 30.5308 10.1578 30.5308C17.728 30.5308 17.7569 30.5302 17.9405 30.3935C18.3838 30.0633 18.4 30.0035 18.4 28.6996C18.4 27.6028 18.3893 27.4966 18.2624 27.3269C18.0017 26.9785 17.7933 26.8743 17.3014 26.8466L16.8411 26.8206L16.8196 25.8337C16.7964 24.7597 16.7639 24.6589 16.3388 24.3422C16.1563 24.2062 16.0981 24.2048 10.2363 24.1903C5.40543 24.1784 4.28135 24.1921 4.11791 24.265ZM15.7638 26.0361V26.8351H10.1578H4.55171V26.0361V25.237H10.1578H15.7638V26.0361Z" fill="#F3BC74"/>
<circle cx="20.5" cy="14.5001" r="2.5" fill="#F3BC74"/>
<rect x="4" y="25.0001" width="12" height="3" fill="#F3BC74"/>
<path d="M24 16.0001L22.5 18.5001L30.5 26.5001L32 26.0001L32.5 24.5001L24 16.0001Z" fill="#F3BC74"/>
</svg>
