<svg width="35" height="35" viewBox="0 0 35 35" fill="none" xmlns="http://www.w3.org/2000/svg">
<path d="M23.2933 23.5491C23.6973 22.1341 23.9646 20.4901 24.0664 18.9116C24.0687 18.8704 24.0624 18.8291 24.0481 18.7904C24.0337 18.7517 24.0116 18.7163 23.983 18.6865C23.9544 18.6567 23.92 18.6331 23.8819 18.6171C23.8438 18.6012 23.8028 18.5932 23.7615 18.5938H18.9039C18.8642 18.5934 18.8247 18.6009 18.7878 18.6158C18.7509 18.6307 18.7174 18.6527 18.689 18.6805C18.6606 18.7084 18.638 18.7416 18.6225 18.7782C18.6069 18.8148 18.5987 18.8541 18.5984 18.8939V22.6741C18.5992 22.7505 18.6288 22.8237 18.6813 22.8792C18.7337 22.9347 18.8052 22.9684 18.8814 22.9735C20.2503 23.0842 21.6028 23.3453 22.9146 23.7522C22.9917 23.7754 23.0749 23.767 23.1459 23.729C23.2169 23.6909 23.2699 23.6262 23.2933 23.5491ZM22.1196 25.7927C21.0789 25.4889 20.0126 25.2809 18.934 25.1713C18.8923 25.1666 18.8502 25.1707 18.8102 25.1832C18.7702 25.1958 18.7332 25.2165 18.7016 25.244C18.6701 25.2716 18.6446 25.3055 18.6268 25.3434C18.609 25.3814 18.5993 25.4227 18.5984 25.4646V29.9243C18.6 29.9775 18.6155 30.0294 18.6433 30.0747C18.6712 30.1201 18.7104 30.1574 18.7571 30.183C18.8038 30.2085 18.8563 30.2214 18.9095 30.2204C18.9627 30.2194 19.0148 30.2045 19.0605 30.1773C20.1474 29.5436 21.0429 28.4792 21.8523 27.0717C21.9849 26.842 22.1865 26.4462 22.3082 26.2042C22.3271 26.1653 22.3372 26.1227 22.3376 26.0794C22.3381 26.0361 22.329 25.9933 22.311 25.9539C22.2929 25.9146 22.2664 25.8797 22.2333 25.8519C22.2002 25.824 22.1614 25.8038 22.1196 25.7927ZM16.0841 25.1836C15.0069 25.2861 13.9414 25.4879 12.9013 25.7865C12.7208 25.8385 12.6449 26.0873 12.727 26.2507C12.8493 26.4941 13.0004 26.8051 13.1296 27.0375C14.0183 28.6098 14.9644 29.601 15.9488 30.1773C15.9944 30.2045 16.0465 30.2194 16.0997 30.2204C16.1529 30.2214 16.2055 30.2085 16.2521 30.183C16.2988 30.1574 16.338 30.1201 16.3659 30.0747C16.3937 30.0294 16.4092 29.9775 16.4109 29.9243V25.4625C16.4105 25.4218 16.4015 25.3816 16.3842 25.3447C16.367 25.3077 16.3421 25.275 16.3111 25.2485C16.2801 25.2221 16.2438 25.2026 16.2047 25.1914C16.1655 25.1802 16.1244 25.1775 16.0841 25.1836ZM16.1053 18.5938H11.2477C11.2064 18.5932 11.1655 18.6012 11.1275 18.6171C11.0895 18.633 11.0551 18.6566 11.0265 18.6863C10.9979 18.716 10.9758 18.7513 10.9614 18.7899C10.947 18.8286 10.9406 18.8698 10.9428 18.9109C11.044 20.4873 11.3099 22.1348 11.7125 23.5485C11.7239 23.5871 11.7429 23.6232 11.7684 23.6545C11.7938 23.6858 11.8252 23.7117 11.8608 23.7308C11.8963 23.7499 11.9353 23.7617 11.9754 23.7656C12.0156 23.7695 12.0561 23.7654 12.0946 23.7535C13.4063 23.3466 14.7589 23.0862 16.1279 22.977C16.2042 22.972 16.2758 22.9384 16.3284 22.8829C16.381 22.8273 16.4107 22.754 16.4115 22.6775V18.8945C16.4113 18.8547 16.4031 18.8152 16.3876 18.7785C16.372 18.7418 16.3494 18.7085 16.3209 18.6805C16.2925 18.6526 16.2588 18.6305 16.2218 18.6156C16.1848 18.6007 16.1452 18.5933 16.1053 18.5938ZM18.9354 9.82872C20.0132 9.72773 21.0782 9.5184 22.1141 9.20392C22.1557 9.19268 22.1943 9.17244 22.2272 9.14463C22.26 9.11682 22.2864 9.08213 22.3044 9.043C22.3224 9.00387 22.3316 8.96126 22.3313 8.9182C22.331 8.87513 22.3213 8.83265 22.3028 8.79376C22.1804 8.54972 22.0109 8.2004 21.881 7.9673C21.0408 6.46339 20.0941 5.41407 19.0618 4.82276C19.0161 4.79569 18.9641 4.78097 18.911 4.78007C18.8578 4.77917 18.8054 4.79212 18.7588 4.81764C18.7121 4.84315 18.673 4.88036 18.6451 4.92561C18.6172 4.97086 18.6016 5.02258 18.5997 5.07569V9.53478C18.6007 9.57671 18.6104 9.61798 18.6282 9.65598C18.6459 9.69397 18.6714 9.72786 18.703 9.7555C18.7345 9.78313 18.7715 9.80391 18.8115 9.81652C18.8515 9.82912 18.8937 9.83328 18.9354 9.82872ZM18.9039 16.4063H23.7615C23.8025 16.407 23.8431 16.3993 23.881 16.3837C23.9188 16.3681 23.9531 16.3449 23.9816 16.3156C24.0102 16.2862 24.0324 16.2514 24.047 16.2131C24.0616 16.1749 24.0682 16.1341 24.0664 16.0932C23.9653 14.5366 23.7062 12.8256 23.3035 11.4297C23.2918 11.3913 23.2725 11.3556 23.2469 11.3247C23.2213 11.2938 23.1899 11.2682 23.1544 11.2495C23.1189 11.2308 23.08 11.2192 23.04 11.2155C23 11.2119 22.9597 11.2161 22.9214 11.228C21.6226 11.6204 20.2697 11.941 18.8821 12.0484C18.8062 12.0527 18.7348 12.0855 18.6822 12.1403C18.6296 12.1951 18.5996 12.2677 18.5984 12.3437V16.1109C18.5998 16.1906 18.6328 16.2664 18.6901 16.3218C18.7474 16.3772 18.8243 16.4075 18.9039 16.4063ZM15.9488 4.82345C14.8946 5.40929 13.9547 6.49347 13.1139 7.99327C12.9833 8.22638 12.8275 8.54767 12.7037 8.79103C12.6853 8.82993 12.6757 8.87239 12.6755 8.91542C12.6752 8.95845 12.6844 9.00101 12.7024 9.04011C12.7204 9.0792 12.7467 9.11388 12.7795 9.14171C12.8124 9.16954 12.8509 9.18984 12.8924 9.20118C13.9279 9.52144 14.9943 9.73156 16.0738 9.82804C16.1155 9.83259 16.1576 9.82845 16.1976 9.81589C16.2375 9.80333 16.2745 9.78261 16.306 9.75505C16.3376 9.72749 16.363 9.69368 16.3809 9.65576C16.3987 9.61785 16.4084 9.57665 16.4095 9.53478V5.07638C16.4073 5.02355 16.3916 4.97217 16.3637 4.92723C16.3359 4.88229 16.2969 4.8453 16.2505 4.81986C16.2042 4.79441 16.152 4.78137 16.0992 4.782C16.0463 4.78263 15.9945 4.79691 15.9488 4.82345ZM16.1272 12.049C14.7395 11.9431 13.3853 11.6225 12.0878 11.2287C12.0495 11.2168 12.0092 11.2125 11.9692 11.2162C11.9292 11.2199 11.8904 11.2314 11.8549 11.2502C11.8194 11.2689 11.7879 11.2945 11.7623 11.3254C11.7367 11.3563 11.7175 11.392 11.7057 11.4304C11.303 12.8263 11.044 14.5373 10.9428 16.0939C10.941 16.1348 10.9476 16.1756 10.9622 16.2138C10.9768 16.2521 10.9991 16.2869 11.0276 16.3163C11.0562 16.3456 11.0904 16.3688 11.1283 16.3844C11.1661 16.3999 11.2067 16.4076 11.2477 16.4069H16.1053C16.1449 16.4076 16.1841 16.4004 16.2209 16.3858C16.2577 16.3712 16.2912 16.3496 16.3196 16.322C16.348 16.2944 16.3707 16.2616 16.3863 16.2252C16.402 16.1889 16.4103 16.1498 16.4109 16.1103V12.3443C16.4096 12.2684 16.3797 12.1957 16.327 12.141C16.2744 12.0862 16.203 12.0533 16.1272 12.049Z" fill="#F3BC74"/>
<path d="M28.3275 6.67251C26.9082 5.23913 25.2196 4.10031 23.3588 3.32148C21.498 2.54265 19.5017 2.13917 17.4845 2.1342C15.4673 2.12924 13.469 2.52289 11.6044 3.29255C9.73974 4.06221 8.04559 5.1927 6.6192 6.61908C5.19282 8.04546 4.06233 9.73962 3.29267 11.6042C2.52301 13.4688 2.12936 15.4671 2.13432 17.4843C2.13929 19.5015 2.54277 21.4979 3.3216 23.3587C4.10043 25.2195 5.23925 26.9081 6.67263 28.3274C8.09198 29.7608 9.78055 30.8996 11.6413 31.6784C13.5021 32.4573 15.4985 32.8607 17.5157 32.8657C19.5329 32.8707 21.5312 32.477 23.3958 31.7074C25.2604 30.9377 26.9546 29.8072 28.3809 28.3808C29.8073 26.9544 30.9378 25.2603 31.7075 23.3957C32.4771 21.5311 32.8708 19.5328 32.8658 17.5156C32.8609 15.4984 32.4574 13.502 31.6786 11.6412C30.8997 9.78043 29.7609 8.09186 28.3275 6.67251ZM12.0723 29.4526C11.7643 29.0201 11.4796 28.5714 11.2192 28.1086C11.0825 27.8564 10.8884 27.4756 10.7592 27.2111C10.7295 27.1483 10.6871 27.0924 10.6347 27.047C10.5822 27.0016 10.5209 26.9676 10.4545 26.9473C10.3882 26.927 10.3183 26.9207 10.2494 26.9289C10.1805 26.9372 10.1141 26.9597 10.0544 26.9951C9.76043 27.1598 9.37078 27.3861 9.08845 27.5713C8.4964 27.1213 7.95603 26.6071 7.47722 26.038C8.13937 25.5707 8.83408 25.1513 9.55603 24.783C9.68318 24.7146 9.74539 24.6367 9.70506 24.4972C9.17611 22.6665 8.85305 20.7825 8.74187 18.8801C8.73856 18.8041 8.70626 18.7321 8.6516 18.6791C8.59694 18.6261 8.52406 18.596 8.44793 18.5951H4.56922C4.53624 18.5954 4.50425 18.5839 4.47913 18.5625C4.454 18.5412 4.43744 18.5115 4.4325 18.4789C4.38954 18.1544 4.37035 17.8272 4.37508 17.5C4.3704 17.1733 4.39005 16.8468 4.43386 16.5231C4.43881 16.4905 4.45537 16.4608 4.48049 16.4394C4.50562 16.4181 4.53761 16.4065 4.57058 16.4069H8.44929C8.60584 16.4069 8.73435 16.3167 8.74256 16.1587C8.85226 14.2643 9.17326 12.3881 9.69959 10.5649C9.71919 10.4983 9.71496 10.427 9.68763 10.3633C9.6603 10.2995 9.61159 10.2473 9.54988 10.2156C8.84343 9.8536 8.16197 9.44481 7.51004 8.99195C7.9863 8.42306 8.516 7.90114 9.09187 7.43335C9.37078 7.61656 9.73445 7.82368 10.0257 7.98775C10.0898 8.02423 10.1608 8.04714 10.2342 8.05508C10.3076 8.06302 10.3818 8.0558 10.4523 8.03389C10.5228 8.01197 10.5881 7.97582 10.644 7.92767C10.7 7.87952 10.7454 7.82039 10.7776 7.75396C10.9061 7.48941 11.0511 7.19478 11.1919 6.94185C11.4533 6.47333 11.7395 6.01901 12.0491 5.58081C13.7536 4.77782 15.6159 4.36583 17.5001 4.37495C19.4784 4.37495 21.3214 4.85347 23.0051 5.63687C23.3024 6.05427 23.5762 6.48788 23.8254 6.9357C24.0024 7.25425 24.1904 7.64458 24.349 7.98296C24.366 8.01899 24.3902 8.05118 24.4201 8.07755C24.45 8.10392 24.4849 8.12392 24.5228 8.13633C24.5607 8.14874 24.6007 8.1533 24.6404 8.14973C24.6801 8.14616 24.7186 8.13454 24.7537 8.11558C25.1215 7.91665 25.52 7.68765 25.8707 7.45728C26.4482 7.92966 26.9792 8.45614 27.4566 9.02954C26.8225 9.46929 26.1588 9.86467 25.4701 10.2128C25.4083 10.2446 25.3595 10.297 25.3323 10.3609C25.3051 10.4248 25.3011 10.4963 25.3211 10.5628C25.8559 12.3736 26.1738 14.2415 26.2679 16.1273C26.2715 16.2029 26.304 16.2743 26.3587 16.3267C26.4134 16.3791 26.4861 16.4085 26.5618 16.4089L30.4323 16.4042C30.4653 16.4038 30.4973 16.4153 30.5224 16.4367C30.5475 16.458 30.5641 16.4878 30.569 16.5204C30.6488 17.1701 30.6488 17.8271 30.569 18.4768C30.5644 18.5097 30.5479 18.5397 30.5228 18.5613C30.4976 18.583 30.4655 18.5947 30.4323 18.5944H26.5584C26.4822 18.5952 26.4092 18.6252 26.3545 18.6783C26.2998 18.7313 26.2676 18.8033 26.2644 18.8794C26.158 20.7617 25.8399 22.626 25.3163 24.4371C25.2965 24.5044 25.3006 24.5765 25.3279 24.6412C25.3551 24.7058 25.4039 24.7591 25.466 24.7919C25.8078 24.9689 26.1886 25.1665 26.5167 25.3674C26.8448 25.5684 27.1695 25.7831 27.4826 26.0059C27.0089 26.5766 26.4825 27.1014 25.9103 27.5734C25.7435 27.4633 25.5453 27.3382 25.3744 27.2357C25.2568 27.1673 25.0401 27.0463 24.9198 26.9787C24.6587 26.8324 24.3811 26.9418 24.2506 27.2111C24.12 27.4804 23.9204 27.8667 23.7809 28.1168C23.524 28.5769 23.2421 29.0225 22.9367 29.4519C21.2537 30.2401 19.4784 30.625 17.5001 30.625C15.5218 30.625 13.756 30.2401 12.0723 29.4526Z" fill="#F3BC74"/>
</svg>
